<svg width="24" height="24" viewBox="0 0 24 24" fill="none" xmlns="http://www.w3.org/2000/svg">
<path d="M17.5573 2H6.44618C3.37951 2 0.890625 4.48889 0.890625 7.55556V8.66667V16.4444C0.890625 19.5111 3.37951 22 6.44618 22H16.4462H17.5573C20.624 22 23.1128 19.5111 23.1128 16.4444V7.55556C23.1128 4.48889 20.624 2 17.5573 2ZM10.324 17.3444C10.2906 17.3444 10.2573 17.3556 10.2128 17.3556C9.80174 17.3556 9.44618 17.0444 9.39062 16.6333C9.24618 15.5 8.42396 14.6778 7.29063 14.5333C6.83507 14.4778 6.51285 14.0556 6.5684 13.6C6.62396 13.1444 7.04618 12.8222 7.50174 12.8778C9.37951 13.1222 10.8017 14.5444 11.0462 16.4222C11.1017 16.8667 10.7795 17.2889 10.324 17.3444ZM13.7128 16.7778C13.6795 16.7778 13.6462 16.7889 13.6017 16.7889C13.1906 16.7889 12.8351 16.4778 12.7795 16.0667C12.4351 13.4222 10.5128 11.4889 7.85729 11.1444C7.40174 11.0889 7.07951 10.6667 7.13507 10.2111C7.19063 9.75556 7.61285 9.43333 8.0684 9.48889C11.4906 9.93333 13.9906 12.4222 14.4351 15.8556C14.4906 16.3 14.1684 16.7111 13.7128 16.7778ZM16.7128 15.8111C16.6795 15.8111 16.6462 15.8222 16.6017 15.8222C16.1906 15.8222 15.8351 15.5111 15.7795 15.1C15.3017 11.3444 12.5684 8.61111 8.81285 8.13333C8.35729 8.07778 8.03507 7.65556 8.09062 7.2C8.14618 6.74444 8.5684 6.42222 9.02396 6.47778C13.5462 7.05556 16.8462 10.3556 17.4351 14.8889C17.4906 15.3444 17.1684 15.7556 16.7128 15.8111Z" fill="white"/>
</svg>
