<svg width="860" height="416" viewBox="0 0 860 416" fill="none" xmlns="http://www.w3.org/2000/svg">
<g clip-path="url(#clip0_197_10953)">
<g clip-path="url(#clip1_197_10953)">
<path d="M-0.226562 22.1935C-0.226562 9.93638 9.70983 0 21.967 0H243.902C256.16 0 266.096 9.93639 266.096 22.1935V416H-0.226562V22.1935Z" fill="#F0E7FD"/>
<path d="M16.6484 74.9023H248.294V177.548H16.6484V74.9023Z" fill="#9D75F4" fill-opacity="0.2"/>
<rect x="16.6484" y="192.805" width="104.032" height="15.2581" fill="#9D75F4" fill-opacity="0.2"/>
<rect x="16.6484" y="221.934" width="231.645" height="110.968" rx="11.0968" fill="#9D75F4"/>
<rect opacity="0.5" width="138.71" height="15.258" rx="7.62902" transform="matrix(1 0 -0.00106313 0.999999 38.875 254.289)" fill="#9D75F4" fill-opacity="0.2"/>
<rect opacity="0.5" x="38.8359" y="284.355" width="97.0968" height="15.2581" rx="7.62903" fill="#9D75F4" fill-opacity="0.2"/>
<rect x="16.6484" y="346.773" width="231.645" height="102.645" fill="#9D75F4" fill-opacity="0.2"/>
<rect width="266.323" height="74.9032" fill="#F0E7FD"/>
<path fill-rule="evenodd" clip-rule="evenodd" d="M31.6792 49.9365C38.5738 49.9365 44.1631 44.3473 44.1631 37.4526C44.1631 30.558 38.5738 24.9688 31.6792 24.9688C24.7845 24.9688 19.1953 30.558 19.1953 37.4526C19.1953 44.3473 24.7845 49.9365 31.6792 49.9365Z" fill="#9D75F4" fill-opacity="0.2"/>
<rect x="49.7109" y="24.9688" width="104.032" height="9.70968" rx="4.85484" fill="#9D75F4" fill-opacity="0.2"/>
<rect x="49.7109" y="40.2266" width="49.9355" height="9.70968" rx="4.85484" fill="#9D75F4" fill-opacity="0.2"/>
</g>
<path d="M21.9668 0.693359H243.902C255.776 0.693359 265.402 10.3193 265.402 22.1934V415.307H0.466797V22.1934C0.466894 10.3194 10.0928 0.693461 21.9668 0.693359Z" stroke="url(#paint0_linear_197_10953)" stroke-width="1.3871"/>
<g clip-path="url(#clip2_197_10953)">
<path d="M296.609 22.1935C296.609 9.93638 306.546 0 318.803 0H540.738C552.996 0 562.932 9.93639 562.932 22.1935V416H296.609V22.1935Z" fill="#F0E7FD"/>
<path d="M314.867 1.38672H545.125V104.032H314.867V1.38672Z" fill="#9D75F4" fill-opacity="0.2"/>
<rect x="314.867" y="119.289" width="104.032" height="15.2581" fill="#9D75F4" fill-opacity="0.2"/>
<rect x="314.867" y="148.418" width="230.258" height="251.065" rx="11.0968" fill="#9D75F4"/>
<rect opacity="0.5" width="138.71" height="15.258" rx="7.62902" transform="matrix(1 0 -0.00106313 0.999999 337.094 180.773)" fill="#9D75F4" fill-opacity="0.2"/>
<rect opacity="0.5" x="337.062" y="210.84" width="97.0968" height="15.2581" rx="7.62903" fill="#9D75F4" fill-opacity="0.2"/>
<rect opacity="0.5" x="337.062" y="356.484" width="97.0968" height="15.2581" rx="7.62903" fill="#9D75F4" fill-opacity="0.2"/>
<rect x="296.836" width="266.323" height="74.9032" fill="#F0E7FD"/>
<path fill-rule="evenodd" clip-rule="evenodd" d="M328.515 49.9365C335.41 49.9365 340.999 44.3473 340.999 37.4526C340.999 30.558 335.41 24.9688 328.515 24.9688C321.62 24.9688 316.031 30.558 316.031 37.4526C316.031 44.3473 321.62 49.9365 328.515 49.9365Z" fill="#9D75F4" fill-opacity="0.2"/>
<rect x="346.547" y="24.9688" width="104.032" height="9.70968" rx="4.85484" fill="#9D75F4" fill-opacity="0.2"/>
<rect x="346.547" y="40.2266" width="49.9355" height="9.70968" rx="4.85484" fill="#9D75F4" fill-opacity="0.2"/>
</g>
<path d="M318.803 0.693359H540.738C552.612 0.693359 562.238 10.3193 562.238 22.1934V415.307H297.303V22.1934C297.303 10.3194 306.929 0.693461 318.803 0.693359Z" stroke="url(#paint1_linear_197_10953)" stroke-width="1.3871"/>
<g clip-path="url(#clip3_197_10953)">
<path d="M593.453 22.1935C593.453 9.93638 603.39 0 615.647 0H837.582C849.839 0 859.776 9.93639 859.776 22.1935V416H593.453V22.1935Z" fill="#F0E7FD"/>
<rect x="611.711" y="74.9023" width="230.258" height="110.968" rx="11.0968" fill="#9D75F4"/>
<rect opacity="0.5" width="138.71" height="15.258" rx="7.62902" transform="matrix(1 0 -0.00106313 0.999999 633.938 107.258)" fill="#9D75F4" fill-opacity="0.2"/>
<rect opacity="0.5" x="633.906" y="137.324" width="97.0968" height="15.2581" rx="7.62903" fill="#9D75F4" fill-opacity="0.2"/>
<rect x="611.711" y="199.742" width="230.258" height="102.645" fill="#9D75F4" fill-opacity="0.2"/>
<rect x="611.711" y="317.645" width="104.032" height="15.2581" fill="#9D75F4" fill-opacity="0.2"/>
<rect x="611.711" y="346.773" width="230.258" height="102.645" fill="#9D75F4" fill-opacity="0.2"/>
<rect x="593.68" width="266.323" height="74.9032" fill="#F0E7FD"/>
<path fill-rule="evenodd" clip-rule="evenodd" d="M625.351 49.9365C632.246 49.9365 637.835 44.3473 637.835 37.4526C637.835 30.558 632.246 24.9688 625.351 24.9688C618.456 24.9688 612.867 30.558 612.867 37.4526C612.867 44.3473 618.456 49.9365 625.351 49.9365Z" fill="#9D75F4" fill-opacity="0.2"/>
<rect x="643.383" y="24.9688" width="104.032" height="9.70968" rx="4.85484" fill="#9D75F4" fill-opacity="0.2"/>
<rect x="643.383" y="40.2266" width="49.9355" height="9.70968" rx="4.85484" fill="#9D75F4" fill-opacity="0.2"/>
</g>
<path d="M615.646 0.693359H837.582C849.456 0.693359 859.082 10.3193 859.082 22.1934V415.307H594.146V22.1934C594.147 10.3194 603.773 0.693461 615.646 0.693359Z" stroke="url(#paint2_linear_197_10953)" stroke-width="1.3871"/>
</g>
<defs>
<linearGradient id="paint0_linear_197_10953" x1="132.935" y1="0" x2="132.935" y2="416" gradientUnits="userSpaceOnUse">
<stop stop-color="white" stop-opacity="0.5"/>
<stop offset="1" stop-color="white" stop-opacity="0"/>
</linearGradient>
<linearGradient id="paint1_linear_197_10953" x1="429.771" y1="0" x2="429.771" y2="416" gradientUnits="userSpaceOnUse">
<stop stop-color="white" stop-opacity="0.5"/>
<stop offset="1" stop-color="white" stop-opacity="0"/>
</linearGradient>
<linearGradient id="paint2_linear_197_10953" x1="726.614" y1="0" x2="726.614" y2="416" gradientUnits="userSpaceOnUse">
<stop stop-color="white" stop-opacity="0.5"/>
<stop offset="1" stop-color="white" stop-opacity="0"/>
</linearGradient>
<clipPath id="clip0_197_10953">
<rect width="860" height="416" fill="white"/>
</clipPath>
<clipPath id="clip1_197_10953">
<path d="M-0.226562 22.1935C-0.226562 9.93638 9.70983 0 21.967 0H243.902C256.16 0 266.096 9.93639 266.096 22.1935V416H-0.226562V22.1935Z" fill="white"/>
</clipPath>
<clipPath id="clip2_197_10953">
<path d="M296.609 22.1935C296.609 9.93638 306.546 0 318.803 0H540.738C552.996 0 562.932 9.93639 562.932 22.1935V416H296.609V22.1935Z" fill="white"/>
</clipPath>
<clipPath id="clip3_197_10953">
<path d="M593.453 22.1935C593.453 9.93638 603.39 0 615.647 0H837.582C849.839 0 859.776 9.93639 859.776 22.1935V416H593.453V22.1935Z" fill="white"/>
</clipPath>
</defs>
</svg>
