<svg width="168" height="466" viewBox="0 0 168 466" fill="none" xmlns="http://www.w3.org/2000/svg">
<path d="M0.164062 0H167.164V74H0.164062V0Z" fill="#9D75F4" fill-opacity="0.2"/>
<rect x="0.164062" y="85" width="75" height="11" fill="#9D75F4" fill-opacity="0.2"/>
<rect x="0.164062" y="106" width="167" height="80" rx="8" fill="#9D75F4"/>
<rect opacity="0.5" width="100" height="11" rx="5.49999" transform="matrix(1 0 -0.00106313 0.999999 16.1875 129.324)" fill="#9D75F4" fill-opacity="0.2"/>
<rect opacity="0.5" x="16.1641" y="151" width="70" height="11" rx="5.5" fill="#9D75F4" fill-opacity="0.2"/>
<rect x="0.164062" y="196" width="167" height="74" fill="#9D75F4" fill-opacity="0.2"/>
<path d="M0.164062 280H167.164V354H0.164062V280Z" fill="#9D75F4" fill-opacity="0.2"/>
<rect x="0.164062" y="365" width="75" height="11" fill="#9D75F4" fill-opacity="0.2"/>
<rect x="0.164062" y="386" width="167" height="80" rx="8" fill="#9D75F4"/>
<rect opacity="0.5" width="100" height="11" rx="5.49999" transform="matrix(1 0 -0.00106313 0.999999 16.1875 409.324)" fill="#9D75F4" fill-opacity="0.2"/>
<rect opacity="0.5" x="16.1641" y="431" width="70" height="11" rx="5.5" fill="#9D75F4" fill-opacity="0.2"/>
</svg>
