<svg width="860" height="416" viewBox="0 0 860 416" fill="none" xmlns="http://www.w3.org/2000/svg">
<g clip-path="url(#clip0_197_10945)">
<path d="M0 22.1935C0 9.93638 9.93639 0 22.1935 0H837.806C850.064 0 860 9.93639 860 22.1935V416H0V22.1935Z" fill="#E8F5EA"/>
<rect x="27.7422" y="73.5156" width="800.355" height="45.7742" fill="#7EC687" fill-opacity="0.2"/>
<rect x="27.7422" y="133.16" width="328.742" height="102.645" fill="#7EC687" fill-opacity="0.2"/>
<rect x="27.7422" y="249.676" width="328.742" height="102.645" fill="#7EC687" fill-opacity="0.2"/>
<path d="M370.352 144.257C370.352 138.128 375.32 133.16 381.448 133.16H816.997C823.125 133.16 828.094 138.128 828.094 144.257V341.225C828.094 347.353 823.125 352.321 816.997 352.321H381.448C375.32 352.321 370.352 347.353 370.352 341.225V144.257Z" fill="#7EC687"/>
<rect opacity="0.5" width="138.71" height="15.258" rx="7.62902" transform="matrix(1 0 -0.00106313 0.999999 392.578 165.516)" fill="white"/>
<rect opacity="0.5" width="138.71" height="15.258" rx="7.62902" transform="matrix(1 0 -0.00106313 0.999999 392.578 274.645)" fill="white"/>
<rect opacity="0.5" width="138.71" height="15.258" rx="7.62902" transform="matrix(1 0 -0.00106313 0.999999 629.773 165.066)" fill="white"/>
<rect opacity="0.5" x="392.547" y="304.711" width="97.0968" height="15.2581" rx="7.62903" fill="white"/>
<rect opacity="0.5" x="392.547" y="195.582" width="97.0968" height="15.2581" rx="7.62903" fill="white"/>
<rect opacity="0.5" x="629.742" y="195.133" width="97.0968" height="15.2581" rx="7.62903" fill="white"/>
<rect x="27.7422" y="366.191" width="800.355" height="102.645" fill="#7EC687" fill-opacity="0.2"/>
<rect x="-4.16406" width="864.161" height="73.5161" fill="#E8F5EA"/>
<g opacity="0.5">
<path fill-rule="evenodd" clip-rule="evenodd" d="M36.705 45.7744C41.655 45.7744 45.6677 41.7378 45.6677 36.7583C45.6677 31.7788 41.655 27.7422 36.705 27.7422C31.755 27.7422 27.7422 31.7788 27.7422 36.7583C27.7422 41.7378 31.755 45.7744 36.705 45.7744Z" fill="#7EC687"/>
<path fill-rule="evenodd" clip-rule="evenodd" d="M67.1112 45.7744C72.0612 45.7744 76.074 41.7378 76.074 36.7583C76.074 31.7788 72.0612 27.7422 67.1112 27.7422C62.1612 27.7422 58.1484 31.7788 58.1484 36.7583C58.1484 41.7378 62.1612 45.7744 67.1112 45.7744Z" fill="#7EC687"/>
<path fill-rule="evenodd" clip-rule="evenodd" d="M97.5253 45.7744C102.475 45.7744 106.488 41.7378 106.488 36.7583C106.488 31.7788 102.475 27.7422 97.5253 27.7422C92.5753 27.7422 88.5625 31.7788 88.5625 36.7583C88.5625 41.7378 92.5753 45.7744 97.5253 45.7744Z" fill="#7EC687"/>
</g>
</g>
<defs>
<clipPath id="clip0_197_10945">
<path d="M0 22.1935C0 9.93638 9.93639 0 22.1935 0H837.806C850.064 0 860 9.93639 860 22.1935V416H0V22.1935Z" fill="white"/>
</clipPath>
</defs>
</svg>
