<svg width="630" height="650" viewBox="0 0 630 650" fill="none" xmlns="http://www.w3.org/2000/svg">
    <path d="M0 16C0 7.16345 7.16344 0 16 0H176C184.837 0 192 7.16344 192 16V540H0V16Z" fill="#F0E7FD"/>

    <g clip-path="url(#clip0_2001_1755)">
        <g clip-path="url(#clip0_2001_1756)">
            <path d="M12.1641 54H179.164V128H12.1641V54Z" fill="#9D75F4" fill-opacity="0.2"/>
            <rect x="12.1641" y="139" width="75" height="11" fill="#9D75F4" fill-opacity="0.2"/>
            <rect x="12.1641" y="160" width="167" height="80" rx="8" fill="#9D75F4"/>
            <rect opacity="0.5" width="100" height="11" rx="5.49999" transform="matrix(1 0 -0.00106313 0.999999 28.1875 183.324)" fill="#9D75F4" fill-opacity="0.2"/>
            <rect opacity="0.5" x="28.1641" y="205" width="70" height="11" rx="5.5" fill="#9D75F4" fill-opacity="0.2"/>
            <rect x="12.1641" y="250" width="167" height="74" fill="#9D75F4" fill-opacity="0.2"/>
            <path d="M12.1641 334H179.164V408H12.1641V334Z" fill="#9D75F4" fill-opacity="0.2"/>
            <rect x="12.1641" y="419" width="75" height="11" fill="#9D75F4" fill-opacity="0.2"/>
            <rect x="12.1641" y="440" width="167" height="80" rx="8" fill="#9D75F4"/>
            <rect opacity="0.5" width="100" height="11" rx="5.49999" transform="matrix(1 0 -0.00106313 0.999999 28.1875 463.324)" fill="#9D75F4" fill-opacity="0.2"/>
            <rect opacity="0.5" x="28.1641" y="485" width="70" height="11" rx="5.5" fill="#9D75F4" fill-opacity="0.2"/>
            <animateTransform
                attributeType="xml" 
                attributeName="transform"
                type="translate"
                dur="8s"
                values="0,-225; 0,0; 0,0; 0,-225; 0,-225;"
                repeatCount="indefinite"
            />
        </g>

        <rect x="0.164062" width="192" height="54" fill="#F0E7FD"/>
        <path fill-rule="evenodd" clip-rule="evenodd" d="M23 36C27.9706 36 32 31.9706 32 27C32 22.0294 27.9706 18 23 18C18.0294 18 14 22.0294 14 27C14 31.9706 18.0294 36 23 36Z" fill="#9D75F4" fill-opacity="0.2"/>
        <rect x="36" y="18" width="75" height="7" rx="3.5" fill="#9D75F4" fill-opacity="0.2"/>
        <rect x="36" y="29" width="36" height="7" rx="3.5" fill="#9D75F4" fill-opacity="0.2"/>
    </g>

    <path d="M219 16C219 7.16346 226.163 0 235 0H395C403.837 0 411 7.16344 411 16V650H219V16Z" fill="#F0E7FD"/>

    <g clip-path="url(#clip1_2001_1755)">
        <g clip-path="url(#clip0_2001_1757)">
            <rect x="232.164" y="54" width="166" height="181" rx="8" fill="#9D75F4"/>
            <rect opacity="0.5" width="100" height="11" rx="5.49999" transform="matrix(1 0 -0.00106313 0.999999 248.188 77.3242)" fill="#9D75F4" fill-opacity="0.2"/>
            <rect opacity="0.5" x="248.164" y="99" width="70" height="11" rx="5.5" fill="#9D75F4" fill-opacity="0.2"/>
            <rect opacity="0.5" x="248.164" y="204" width="70" height="11" rx="5.5" fill="#9D75F4" fill-opacity="0.2"/>
            <path d="M232.164 245H398.164V319H232.164V245Z" fill="#9D75F4" fill-opacity="0.2"/>
            <rect x="232.164" y="330" width="75" height="11" fill="#9D75F4" fill-opacity="0.2"/>
            <path d="M232.164 351H398.164V425H232.164V351Z" fill="#9D75F4" fill-opacity="0.2"/>
            <rect x="232.164" y="436" width="75" height="11" fill="#9D75F4" fill-opacity="0.2"/>
            <rect x="232.164" y="457" width="166" height="181" rx="8" fill="#9D75F4"/>
            <rect opacity="0.5" width="100" height="11" rx="5.49999" transform="matrix(1 0 -0.00106313 0.999999 248.188 480.324)" fill="#9D75F4" fill-opacity="0.2"/>
            <rect opacity="0.5" x="248.164" y="502" width="70" height="11" rx="5.5" fill="#9D75F4" fill-opacity="0.2"/>
            <rect opacity="0.5" x="248.164" y="607" width="70" height="11" rx="5.5" fill="#9D75F4" fill-opacity="0.2"/>

            <animateTransform
                attributeType="xml" 
                attributeName="transform"
                type="translate"
                dur="8s"
                values="0,0; 0,-345; 0,-345; 0,0; 0,0;"
                repeatCount="indefinite"
            />
        </g>

        <rect x="219.164" width="192" height="54" fill="#F0E7FD"/>
        <path fill-rule="evenodd" clip-rule="evenodd" d="M242 36C246.971 36 251 31.9706 251 27C251 22.0294 246.971 18 242 18C237.029 18 233 22.0294 233 27C233 31.9706 237.029 36 242 36Z" fill="#9D75F4" fill-opacity="0.2"/>
        <rect x="255" y="18" width="75" height="7" rx="3.5" fill="#9D75F4" fill-opacity="0.2"/>
        <rect x="255" y="29" width="36" height="7" rx="3.5" fill="#9D75F4" fill-opacity="0.2"/>
    </g>

    <path d="M438 16C438 7.16344 445.163 0 454 0H614C622.837 0 630 7.16344 630 16V562H438V16Z" fill="#F0E7FD"/>


    <g clip-path="url(#clip2_2001_1755)">
        <g clip-path="url(#clip0_2001_1758)">
            <rect x="451.164" y="54" width="166" height="80" rx="8" fill="#9D75F4"/>
            <rect opacity="0.5" width="100" height="11" rx="5.49999" transform="matrix(1 0 -0.00106313 0.999999 467.188 77.3242)" fill="#9D75F4" fill-opacity="0.2"/>
            <rect opacity="0.5" x="467.164" y="99" width="70" height="11" rx="5.5" fill="#9D75F4" fill-opacity="0.2"/>
            <rect x="451.164" y="144" width="166" height="74" fill="#9D75F4" fill-opacity="0.2"/>
            <rect x="451.164" y="229" width="75" height="11" fill="#9D75F4" fill-opacity="0.2"/>
            <rect x="451.164" y="250" width="166" height="74" fill="#9D75F4" fill-opacity="0.2"/>
            <rect x="451.164" y="335" width="75" height="11" fill="#9D75F4" fill-opacity="0.2"/>
            <rect x="451.164" y="356" width="166" height="80" rx="8" fill="#9D75F4"/>
            <rect opacity="0.5" width="100" height="11" rx="5.49999" transform="matrix(1 0 -0.00106313 0.999999 467.188 379.324)" fill="#9D75F4" fill-opacity="0.2"/>
            <rect opacity="0.5" x="467.164" y="401" width="70" height="11" rx="5.5" fill="#9D75F4" fill-opacity="0.2"/>
            <rect x="451.164" y="446" width="166" height="74" fill="#9D75F4" fill-opacity="0.2"/>
            <rect x="451.164" y="531" width="75" height="11" fill="#9D75F4" fill-opacity="0.2"/>
        
            <animateTransform
                attributeType="xml" 
                attributeName="transform"
                type="translate"
                dur="8s"
                values="0,-245; 0,0; 0,0; 0,-245; 0,-245;"
                repeatCount="indefinite"
            />
        </g>
        
        <rect x="438.164" width="192" height="54" fill="#F0E7FD"/>
        <path fill-rule="evenodd" clip-rule="evenodd" d="M461 36C465.971 36 470 31.9706 470 27C470 22.0294 465.971 18 461 18C456.029 18 452 22.0294 452 27C452 31.9706 456.029 36 461 36Z" fill="#9D75F4" fill-opacity="0.2"/>
        <rect x="474" y="18" width="75" height="7" rx="3.5" fill="#9D75F4" fill-opacity="0.2"/>
        <rect x="474" y="29" width="36" height="7" rx="3.5" fill="#9D75F4" fill-opacity="0.2"/>
    </g>

    <defs>
        <clipPath id="clip0_2001_1756">
            <path d="M0 16C0 7.16345 7.16344 0 16 0H176C184.837 0 192 7.16344 192 16V540H0V16Z" fill="white"/>
        </clipPath>

        <clipPath id="clip0_2001_1757">
            <path d="M219 16C219 7.16346 226.163 0 235 0H395C403.837 0 411 7.16344 411 16V650H219V16Z" fill="white"/>
        </clipPath>

        <clipPath id="clip0_2001_1758">
            <path d="M438 16C438 7.16344 445.163 0 454 0H614C622.837 0 630 7.16344 630 16V562H438V16Z" fill="white"/>
        </clipPath>

        <clipPath id="clip0_2001_1755">
            <path d="M0 16C0 7.16345 7.16344 0 16 0H176C184.837 0 192 7.16344 192 16V540H0V16Z" fill="white"/>
        </clipPath>

        <clipPath id="clip1_2001_1755">
            <path d="M219 16C219 7.16346 226.163 0 235 0H395C403.837 0 411 7.16344 411 16V650H219V16Z" fill="white"/>
        </clipPath>

        <clipPath id="clip2_2001_1755">
            <path d="M438 16C438 7.16344 445.163 0 454 0H614C622.837 0 630 7.16344 630 16V562H438V16Z" fill="white"/>
        </clipPath>
    </defs>
</svg>
