<svg width="738" height="432" viewBox="0 0 738 432" fill="none" xmlns="http://www.w3.org/2000/svg">
<g clip-path="url(#clip0_197_13994)">
<rect width="738" height="432" fill="#FCF4DF"/>
<rect x="41" y="264" width="107.6" height="74" fill="white"/>
<path opacity="0.5" d="M100.667 291H89.5556C86.4889 291 84 293.489 84 296.556V297.667V305.444C84 308.511 86.4889 311 89.5556 311H99.5556H100.667C103.733 311 106.222 308.511 106.222 305.444V296.556C106.222 293.489 103.733 291 100.667 291ZM93.4333 306.344C93.4 306.344 93.3667 306.356 93.3222 306.356C92.9111 306.356 92.5556 306.044 92.5 305.633C92.3556 304.5 91.5333 303.678 90.4 303.533C89.9444 303.478 89.6222 303.056 89.6778 302.6C89.7333 302.144 90.1556 301.822 90.6111 301.878C92.4889 302.122 93.9111 303.544 94.1556 305.422C94.2111 305.867 93.8889 306.289 93.4333 306.344ZM96.8222 305.778C96.7889 305.778 96.7556 305.789 96.7111 305.789C96.3 305.789 95.9444 305.478 95.8889 305.067C95.5444 302.422 93.6222 300.489 90.9667 300.144C90.5111 300.089 90.1889 299.667 90.2444 299.211C90.3 298.756 90.7222 298.433 91.1778 298.489C94.6 298.933 97.1 301.422 97.5444 304.856C97.6 305.3 97.2778 305.711 96.8222 305.778ZM99.8222 304.811C99.7889 304.811 99.7556 304.822 99.7111 304.822C99.3 304.822 98.9444 304.511 98.8889 304.1C98.4111 300.344 95.6778 297.611 91.9222 297.133C91.4667 297.078 91.1444 296.656 91.2 296.2C91.2556 295.744 91.6778 295.422 92.1333 295.478C96.6556 296.056 99.9556 299.356 100.544 303.889C100.6 304.344 100.278 304.756 99.8222 304.811Z" fill="#EEBD44"/>
<rect x="41" y="349" width="75" height="11" fill="white"/>
<rect x="164" y="264" width="107.6" height="74" fill="white"/>
<path opacity="0.5" d="M223.667 291H212.556C209.489 291 207 293.489 207 296.556V297.667V305.444C207 308.511 209.489 311 212.556 311H222.556H223.667C226.733 311 229.222 308.511 229.222 305.444V296.556C229.222 293.489 226.733 291 223.667 291ZM216.433 306.344C216.4 306.344 216.367 306.356 216.322 306.356C215.911 306.356 215.556 306.044 215.5 305.633C215.356 304.5 214.533 303.678 213.4 303.533C212.944 303.478 212.622 303.056 212.678 302.6C212.733 302.144 213.156 301.822 213.611 301.878C215.489 302.122 216.911 303.544 217.156 305.422C217.211 305.867 216.889 306.289 216.433 306.344ZM219.822 305.778C219.789 305.778 219.756 305.789 219.711 305.789C219.3 305.789 218.944 305.478 218.889 305.067C218.544 302.422 216.622 300.489 213.967 300.144C213.511 300.089 213.189 299.667 213.244 299.211C213.3 298.756 213.722 298.433 214.178 298.489C217.6 298.933 220.1 301.422 220.544 304.856C220.6 305.3 220.278 305.711 219.822 305.778ZM222.822 304.811C222.789 304.811 222.756 304.822 222.711 304.822C222.3 304.822 221.944 304.511 221.889 304.1C221.411 300.344 218.678 297.611 214.922 297.133C214.467 297.078 214.144 296.656 214.2 296.2C214.256 295.744 214.678 295.422 215.133 295.478C219.656 296.056 222.956 299.356 223.544 303.889C223.6 304.344 223.278 304.756 222.822 304.811Z" fill="#EEBD44"/>
<rect x="164" y="349" width="75" height="11" fill="white"/>
<g clip-path="url(#clip1_197_13994)">
<path d="M308 84C308 75.1634 315.163 68 324 68H950C958.837 68 966 75.1634 966 84V432H308V84Z" fill="white"/>
<g opacity="0.5">
<path fill-rule="evenodd" clip-rule="evenodd" d="M334.462 101C338.03 101 340.923 98.0899 340.923 94.5C340.923 90.9101 338.03 88 334.462 88C330.893 88 328 90.9101 328 94.5C328 98.0899 330.893 101 334.462 101Z" fill="#EEBD44"/>
<path fill-rule="evenodd" clip-rule="evenodd" d="M356.383 101C359.952 101 362.845 98.0899 362.845 94.5C362.845 90.9101 359.952 88 356.383 88C352.815 88 349.922 90.9101 349.922 94.5C349.922 98.0899 352.815 101 356.383 101Z" fill="#EEBD44"/>
<path fill-rule="evenodd" clip-rule="evenodd" d="M378.305 101C381.874 101 384.767 98.0899 384.767 94.5C384.767 90.9101 381.874 88 378.305 88C374.737 88 371.844 90.9101 371.844 94.5C371.844 98.0899 374.737 101 378.305 101Z" fill="#EEBD44"/>
</g>
<rect x="328" y="121" width="192.667" height="33" fill="#FCF4DF"/>
<rect x="540.664" y="121" width="192.667" height="33" fill="#FCF4DF"/>
<rect x="328" y="184" width="487" height="11" fill="#FCF4DF"/>
<rect x="328" y="200" width="336" height="11" fill="#FCF4DF"/>
<rect x="328" y="241" width="107.6" height="74" fill="#FCF4DF"/>
<rect x="328" y="326" width="75" height="11" fill="#FCF4DF"/>
<rect x="455.602" y="241" width="107.6" height="74" fill="#FCF4DF"/>
<rect x="455.602" y="326" width="75" height="11" fill="#FCF4DF"/>
<rect x="583.203" y="241" width="107.6" height="74" fill="#FCF4DF"/>
<rect x="583.203" y="326" width="75" height="11" fill="#FCF4DF"/>
<rect x="710.797" y="241" width="107.6" height="74" fill="#FCF4DF"/>
<rect x="710.797" y="326" width="75" height="11" fill="#FCF4DF"/>
<rect x="328" y="367" width="107.6" height="74" fill="#FCF4DF"/>
<rect x="455.602" y="367" width="107.6" height="74" fill="#FCF4DF"/>
<rect x="583.203" y="367" width="107.6" height="74" fill="#FCF4DF"/>
<rect x="710.797" y="367" width="107.6" height="74" fill="#FCF4DF"/>
</g>
<rect x="41" y="128" width="107.6" height="74" fill="white"/>
<path opacity="0.5" d="M100.667 155H89.5556C86.4889 155 84 157.489 84 160.556V161.667V169.444C84 172.511 86.4889 175 89.5556 175H99.5556H100.667C103.733 175 106.222 172.511 106.222 169.444V160.556C106.222 157.489 103.733 155 100.667 155ZM93.4333 170.344C93.4 170.344 93.3667 170.356 93.3222 170.356C92.9111 170.356 92.5556 170.044 92.5 169.633C92.3556 168.5 91.5333 167.678 90.4 167.533C89.9444 167.478 89.6222 167.056 89.6778 166.6C89.7333 166.144 90.1556 165.822 90.6111 165.878C92.4889 166.122 93.9111 167.544 94.1556 169.422C94.2111 169.867 93.8889 170.289 93.4333 170.344ZM96.8222 169.778C96.7889 169.778 96.7556 169.789 96.7111 169.789C96.3 169.789 95.9444 169.478 95.8889 169.067C95.5444 166.422 93.6222 164.489 90.9667 164.144C90.5111 164.089 90.1889 163.667 90.2444 163.211C90.3 162.756 90.7222 162.433 91.1778 162.489C94.6 162.933 97.1 165.422 97.5444 168.856C97.6 169.3 97.2778 169.711 96.8222 169.778ZM99.8222 168.811C99.7889 168.811 99.7556 168.822 99.7111 168.822C99.3 168.822 98.9444 168.511 98.8889 168.1C98.4111 164.344 95.6778 161.611 91.9222 161.133C91.4667 161.078 91.1444 160.656 91.2 160.2C91.2556 159.744 91.6778 159.422 92.1333 159.478C96.6556 160.056 99.9556 163.356 100.544 167.889C100.6 168.344 100.278 168.756 99.8222 168.811Z" fill="#EEBD44"/>
<rect x="41" y="213" width="75" height="11" fill="white"/>
<rect x="164" y="128" width="107.6" height="74" fill="white"/>
<path opacity="0.5" d="M223.667 155H212.556C209.489 155 207 157.489 207 160.556V161.667V169.444C207 172.511 209.489 175 212.556 175H222.556H223.667C226.733 175 229.222 172.511 229.222 169.444V160.556C229.222 157.489 226.733 155 223.667 155ZM216.433 170.344C216.4 170.344 216.367 170.356 216.322 170.356C215.911 170.356 215.556 170.044 215.5 169.633C215.356 168.5 214.533 167.678 213.4 167.533C212.944 167.478 212.622 167.056 212.678 166.6C212.733 166.144 213.156 165.822 213.611 165.878C215.489 166.122 216.911 167.544 217.156 169.422C217.211 169.867 216.889 170.289 216.433 170.344ZM219.822 169.778C219.789 169.778 219.756 169.789 219.711 169.789C219.3 169.789 218.944 169.478 218.889 169.067C218.544 166.422 216.622 164.489 213.967 164.144C213.511 164.089 213.189 163.667 213.244 163.211C213.3 162.756 213.722 162.433 214.178 162.489C217.6 162.933 220.1 165.422 220.544 168.856C220.6 169.3 220.278 169.711 219.822 169.778ZM222.822 168.811C222.789 168.811 222.756 168.822 222.711 168.822C222.3 168.822 221.944 168.511 221.889 168.1C221.411 164.344 218.678 161.611 214.922 161.133C214.467 161.078 214.144 160.656 214.2 160.2C214.256 159.744 214.678 159.422 215.133 159.478C219.656 160.056 222.956 163.356 223.544 167.889C223.6 168.344 223.278 168.756 222.822 168.811Z" fill="#EEBD44"/>
<rect x="164" y="213" width="75" height="11" fill="white"/>
<path d="M57.5573 46H46.4462C43.3795 46 40.8906 48.4889 40.8906 51.5556V52.6667V60.4444C40.8906 63.5111 43.3795 66 46.4462 66H56.4462H57.5573C60.624 66 63.1128 63.5111 63.1128 60.4444V51.5556C63.1128 48.4889 60.624 46 57.5573 46ZM50.324 61.3444C50.2906 61.3444 50.2573 61.3556 50.2128 61.3556C49.8017 61.3556 49.4462 61.0444 49.3906 60.6333C49.2462 59.5 48.424 58.6778 47.2906 58.5333C46.8351 58.4778 46.5128 58.0556 46.5684 57.6C46.624 57.1444 47.0462 56.8222 47.5017 56.8778C49.3795 57.1222 50.8017 58.5444 51.0462 60.4222C51.1017 60.8667 50.7795 61.2889 50.324 61.3444ZM53.7128 60.7778C53.6795 60.7778 53.6462 60.7889 53.6017 60.7889C53.1906 60.7889 52.8351 60.4778 52.7795 60.0667C52.4351 57.4222 50.5128 55.4889 47.8573 55.1444C47.4017 55.0889 47.0795 54.6667 47.1351 54.2111C47.1906 53.7556 47.6128 53.4333 48.0684 53.4889C51.4906 53.9333 53.9906 56.4222 54.4351 59.8556C54.4906 60.3 54.1684 60.7111 53.7128 60.7778ZM56.7128 59.8111C56.6795 59.8111 56.6462 59.8222 56.6017 59.8222C56.1906 59.8222 55.8351 59.5111 55.7795 59.1C55.3017 55.3444 52.5684 52.6111 48.8128 52.1333C48.3573 52.0778 48.0351 51.6556 48.0906 51.2C48.1462 50.7444 48.5684 50.4222 49.024 50.4778C53.5462 51.0556 56.8462 54.3556 57.4351 58.8889C57.4906 59.3444 57.1684 59.7556 56.7128 59.8111Z" fill="#EEBD44"/>
<path d="M72.432 64L76.848 47.2H82.368L86.784 64H83.52L82.608 60.304H76.608L75.696 64H72.432ZM77.352 57.376H81.864L79.824 49.192H79.392L77.352 57.376ZM93.6909 64.336C92.7469 64.336 91.8589 64.104 91.0269 63.64C90.2109 63.16 89.5549 62.464 89.0589 61.552C88.5629 60.64 88.3149 59.536 88.3149 58.24V57.856C88.3149 56.56 88.5629 55.456 89.0589 54.544C89.5549 53.632 90.2109 52.944 91.0269 52.48C91.8429 52 92.7309 51.76 93.6909 51.76C94.4109 51.76 95.0109 51.848 95.4909 52.024C95.9869 52.184 96.3869 52.392 96.6909 52.648C96.9949 52.904 97.2269 53.176 97.3869 53.464H97.8189V47.2H100.843V64H97.8669V62.56H97.4349C97.1629 63.008 96.7389 63.416 96.1629 63.784C95.6029 64.152 94.7789 64.336 93.6909 64.336ZM94.6029 61.696C95.5309 61.696 96.3069 61.4 96.9309 60.808C97.5549 60.2 97.8669 59.32 97.8669 58.168V57.928C97.8669 56.776 97.5549 55.904 96.9309 55.312C96.3229 54.704 95.5469 54.4 94.6029 54.4C93.6749 54.4 92.8989 54.704 92.2749 55.312C91.6509 55.904 91.3389 56.776 91.3389 57.928V58.168C91.3389 59.32 91.6509 60.2 92.2749 60.808C92.8989 61.4 93.6749 61.696 94.6029 61.696ZM110.193 64V47.2H116.217L119.553 61.84H119.985V47.2H123.105V64H117.081L113.745 49.36H113.313V64H110.193ZM131.792 64.336C130.608 64.336 129.56 64.088 128.648 63.592C127.752 63.08 127.048 62.368 126.536 61.456C126.04 60.528 125.792 59.44 125.792 58.192V57.904C125.792 56.656 126.04 55.576 126.536 54.664C127.032 53.736 127.728 53.024 128.624 52.528C129.52 52.016 130.56 51.76 131.743 51.76C132.912 51.76 133.928 52.024 134.792 52.552C135.656 53.064 136.328 53.784 136.807 54.712C137.288 55.624 137.528 56.688 137.528 57.904V58.936H128.864C128.896 59.752 129.2 60.416 129.776 60.928C130.352 61.44 131.056 61.696 131.888 61.696C132.736 61.696 133.36 61.512 133.76 61.144C134.16 60.776 134.464 60.368 134.672 59.92L137.144 61.216C136.92 61.632 136.592 62.088 136.16 62.584C135.744 63.064 135.184 63.48 134.48 63.832C133.776 64.168 132.88 64.336 131.792 64.336ZM128.888 56.68H134.456C134.392 55.992 134.112 55.44 133.616 55.024C133.136 54.608 132.504 54.4 131.72 54.4C130.904 54.4 130.256 54.608 129.776 55.024C129.296 55.44 129 55.992 128.888 56.68ZM144.381 64C143.597 64 142.957 63.76 142.461 63.28C141.981 62.784 141.741 62.128 141.741 61.312V54.592H138.765V52.096H141.741V48.4H144.765V52.096H148.029V54.592H144.765V60.784C144.765 61.264 144.989 61.504 145.437 61.504H147.741V64H144.381ZM151.726 64L150.046 52.096H153.046L154.102 61.96H154.534L156.07 52.096H160.918L162.454 61.96H162.886L163.942 52.096H166.942L165.262 64H160.246L158.71 54.136H158.278L156.742 64H151.726ZM175.203 64.336C174.019 64.336 172.955 64.096 172.011 63.616C171.067 63.136 170.323 62.44 169.779 61.528C169.235 60.616 168.963 59.52 168.963 58.24V57.856C168.963 56.576 169.235 55.48 169.779 54.568C170.323 53.656 171.067 52.96 172.011 52.48C172.955 52 174.019 51.76 175.203 51.76C176.387 51.76 177.451 52 178.395 52.48C179.339 52.96 180.083 53.656 180.627 54.568C181.171 55.48 181.443 56.576 181.443 57.856V58.24C181.443 59.52 181.171 60.616 180.627 61.528C180.083 62.44 179.339 63.136 178.395 63.616C177.451 64.096 176.387 64.336 175.203 64.336ZM175.203 61.648C176.131 61.648 176.899 61.352 177.507 60.76C178.115 60.152 178.419 59.288 178.419 58.168V57.928C178.419 56.808 178.115 55.952 177.507 55.36C176.915 54.752 176.147 54.448 175.203 54.448C174.275 54.448 173.507 54.752 172.899 55.36C172.291 55.952 171.987 56.808 171.987 57.928V58.168C171.987 59.288 172.291 60.152 172.899 60.76C173.507 61.352 174.275 61.648 175.203 61.648ZM184.235 64V52.096H187.211V53.44H187.643C187.819 52.96 188.107 52.608 188.507 52.384C188.923 52.16 189.403 52.048 189.947 52.048H191.387V54.736H189.899C189.131 54.736 188.499 54.944 188.003 55.36C187.507 55.76 187.259 56.384 187.259 57.232V64H184.235ZM193.75 64V47.2H196.774V56.488H197.206L201.142 52.096H205.078L199.582 57.856L205.27 64H201.382L197.206 59.272H196.774V64H193.75ZM211.913 64.336C210.361 64.336 209.089 64 208.097 63.328C207.105 62.656 206.505 61.696 206.297 60.448L209.081 59.728C209.193 60.288 209.377 60.728 209.633 61.048C209.905 61.368 210.233 61.6 210.617 61.744C211.017 61.872 211.449 61.936 211.913 61.936C212.617 61.936 213.137 61.816 213.473 61.576C213.809 61.32 213.977 61.008 213.977 60.64C213.977 60.272 213.817 59.992 213.497 59.8C213.177 59.592 212.665 59.424 211.961 59.296L211.289 59.176C210.457 59.016 209.697 58.8 209.009 58.528C208.321 58.24 207.769 57.848 207.353 57.352C206.937 56.856 206.729 56.216 206.729 55.432C206.729 54.248 207.161 53.344 208.025 52.72C208.889 52.08 210.025 51.76 211.433 51.76C212.761 51.76 213.865 52.056 214.745 52.648C215.625 53.24 216.201 54.016 216.473 54.976L213.665 55.84C213.537 55.232 213.273 54.8 212.873 54.544C212.489 54.288 212.009 54.16 211.433 54.16C210.857 54.16 210.417 54.264 210.113 54.472C209.809 54.664 209.657 54.936 209.657 55.288C209.657 55.672 209.817 55.96 210.137 56.152C210.457 56.328 210.889 56.464 211.433 56.56L212.105 56.68C213.001 56.84 213.809 57.056 214.529 57.328C215.265 57.584 215.841 57.96 216.257 58.456C216.689 58.936 216.905 59.592 216.905 60.424C216.905 61.672 216.449 62.64 215.537 63.328C214.641 64 213.433 64.336 211.913 64.336Z" fill="#EEBD44"/>
<rect y="332" width="738" height="100" fill="url(#paint0_linear_197_13994)"/>
</g>
<defs>
<linearGradient id="paint0_linear_197_13994" x1="369" y1="332" x2="369" y2="432" gradientUnits="userSpaceOnUse">
<stop stop-color="#FCF4DF" stop-opacity="0"/>
<stop offset="1" stop-color="#FCF4DF"/>
</linearGradient>
<clipPath id="clip0_197_13994">
<rect width="738" height="432" fill="white"/>
</clipPath>
<clipPath id="clip1_197_13994">
<path d="M308 84C308 75.1634 315.163 68 324 68H950C958.837 68 966 75.1634 966 84V432H308V84Z" fill="white"/>
</clipPath>
</defs>
</svg>
