<svg width="738" height="432" viewBox="0 0 738 432" fill="none" xmlns="http://www.w3.org/2000/svg">
<rect width="738" height="432" fill="#E8F5EA"/>
<g clip-path="url(#clip0_197_13946)">
<path d="M40 118C40 109.163 47.1634 102 56 102H682C690.837 102 698 109.163 698 118V432H40V118Z" fill="white"/>
<g opacity="0.5">
<path fill-rule="evenodd" clip-rule="evenodd" d="M66.4615 135C70.0301 135 72.9231 132.09 72.9231 128.5C72.9231 124.91 70.0301 122 66.4615 122C62.8929 122 60 124.91 60 128.5C60 132.09 62.8929 135 66.4615 135Z" fill="#7EC687"/>
<path fill-rule="evenodd" clip-rule="evenodd" d="M88.3834 135C91.952 135 94.845 132.09 94.845 128.5C94.845 124.91 91.952 122 88.3834 122C84.8148 122 81.9219 124.91 81.9219 128.5C81.9219 132.09 84.8148 135 88.3834 135Z" fill="#7EC687"/>
<path fill-rule="evenodd" clip-rule="evenodd" d="M110.305 135C113.874 135 116.767 132.09 116.767 128.5C116.767 124.91 113.874 122 110.305 122C106.737 122 103.844 124.91 103.844 128.5C103.844 132.09 106.737 135 110.305 135Z" fill="#7EC687"/>
</g>
<rect x="60" y="155" width="487" height="11" fill="#E8F5EA"/>
<rect x="60" y="171" width="336" height="11" fill="#E8F5EA"/>
<g clip-path="url(#clip1_197_13946)">
<path d="M92 228C92 219.163 84.8366 212 76 212C67.1634 212 60 219.163 60 228C60 235.986 65.8509 242.605 73.5 243.806V232.625H69.4375V228H73.5V224.475C73.5 220.465 75.8888 218.25 79.5434 218.25C81.2934 218.25 83.125 218.562 83.125 218.562V222.5H81.1075C79.12 222.5 78.5 223.733 78.5 225V228H82.9375L82.2281 232.625H78.5V243.806C86.1491 242.605 92 235.986 92 228Z" fill="#7EC687"/>
</g>
<path d="M148 212C156.837 212 164 219.163 164 228C164 236.837 156.837 244 148 244C139.163 244 132 236.837 132 228C132 219.163 139.163 212 148 212ZM154.681 218.325C154.026 218.325 153.464 218.699 153.202 219.261L149.329 218.438C149.217 218.419 149.104 218.437 149.011 218.493C148.917 218.549 148.861 218.644 148.823 218.756L147.645 224.332C145.156 224.407 142.929 225.137 141.319 226.315C140.908 225.923 140.327 225.661 139.71 225.661C138.419 225.661 137.371 226.709 137.371 228C137.371 228.954 137.932 229.76 138.756 230.134C138.718 230.358 138.699 230.602 138.699 230.845C138.699 234.437 142.872 237.338 148.037 237.338C153.202 237.338 157.375 234.438 157.375 230.845C157.375 230.602 157.357 230.377 157.319 230.152C158.087 229.778 158.667 228.954 158.667 228C158.667 226.709 157.618 225.661 156.327 225.661C155.691 225.661 155.129 225.904 154.718 226.315C153.127 225.174 150.919 224.426 148.486 224.332L149.554 219.336L153.016 220.065C153.053 220.945 153.782 221.656 154.681 221.656C155.598 221.656 156.347 220.907 156.347 219.99C156.346 219.073 155.597 218.325 154.681 218.325ZM151.387 233.445C151.555 233.277 151.836 233.277 152.005 233.445C152.136 233.632 152.135 233.895 151.967 234.063C150.825 235.205 148.655 235.279 148.019 235.279C147.382 235.279 145.193 235.186 144.07 234.063C143.902 233.895 143.902 233.614 144.07 233.445C144.239 233.277 144.519 233.277 144.688 233.445C145.399 234.156 146.933 234.419 148.037 234.419C149.141 234.419 150.657 234.156 151.387 233.445ZM144.332 228C145.249 228 145.998 228.748 145.998 229.665C145.998 230.582 145.249 231.331 144.332 231.331C143.415 231.331 142.667 230.582 142.667 229.665C142.667 228.748 143.415 228 144.332 228ZM151.668 228C152.585 228 153.333 228.748 153.333 229.665C153.333 230.582 152.585 231.331 151.668 231.331C150.751 231.331 150.002 230.582 150.002 229.665C150.002 228.748 150.751 228 151.668 228Z" fill="#7EC687"/>
<g clip-path="url(#clip2_197_13946)">
<path d="M220 212C228.837 212 236 219.163 236 228C236 236.837 228.837 244 220 244C211.163 244 204 236.837 204 228C204 219.163 211.163 212 220 212ZM226.542 221.632C225.94 221.642 225.017 221.963 220.573 223.812C219.017 224.459 215.907 225.799 211.242 227.831C210.485 228.132 210.088 228.427 210.052 228.715C209.982 229.268 210.779 229.441 211.781 229.767C212.598 230.032 213.697 230.342 214.269 230.354C214.787 230.366 215.365 230.152 216.004 229.714C220.358 226.775 222.607 225.288 222.752 225.253C222.852 225.23 222.99 225.202 223.084 225.285C223.177 225.368 223.168 225.526 223.158 225.568C223.076 225.908 218.985 229.629 218.749 229.874C217.849 230.809 216.826 231.382 218.405 232.423C219.772 233.323 220.568 233.898 221.976 234.821C222.875 235.411 223.581 236.11 224.51 236.024C224.937 235.985 225.379 235.584 225.604 234.385C226.134 231.551 227.175 225.411 227.416 222.881C227.437 222.659 227.411 222.375 227.39 222.251C227.368 222.127 227.324 221.95 227.162 221.818C226.97 221.663 226.674 221.63 226.542 221.632Z" fill="#7EC687"/>
</g>
<g clip-path="url(#clip3_197_13946)">
<path d="M292 212C283.163 212 276 219.163 276 228C276 234.781 280.219 240.569 286.169 242.9C286.031 241.631 285.9 239.694 286.225 238.312C286.519 237.062 288.1 230.362 288.1 230.362C288.1 230.362 287.619 229.406 287.619 227.988C287.619 225.763 288.906 224.1 290.512 224.1C291.875 224.1 292.538 225.125 292.538 226.356C292.538 227.731 291.662 229.781 291.212 231.681C290.837 233.275 292.012 234.575 293.581 234.575C296.425 234.575 298.612 231.575 298.612 227.25C298.612 223.419 295.862 220.738 291.931 220.738C287.381 220.738 284.706 224.15 284.706 227.681C284.706 229.056 285.238 230.531 285.9 231.331C286.031 231.487 286.05 231.631 286.012 231.788C285.894 232.294 285.619 233.381 285.569 233.6C285.5 233.894 285.338 233.956 285.031 233.812C283.031 232.881 281.781 229.963 281.781 227.613C281.781 222.563 285.45 217.931 292.35 217.931C297.9 217.931 302.212 221.888 302.212 227.175C302.212 232.688 298.738 237.125 293.913 237.125C292.294 237.125 290.769 236.281 290.244 235.288C290.244 235.288 289.444 238.344 289.25 239.094C288.888 240.481 287.912 242.225 287.262 243.288C288.762 243.75 290.35 244 292 244C300.837 244 308 236.837 308 228C308 219.163 300.837 212 292 212Z" fill="#7EC687"/>
</g>
<path d="M356.003 212L350.289 217.714V238.286H357.146V244L362.86 238.286H367.432L377.718 228V212H356.003ZM375.432 226.857L370.86 231.429H366.289L362.289 235.429V231.429H357.146V214.286H375.432V226.857Z" fill="#7EC687"/>
<path d="M372.004 218.285H369.719V225.142H372.004V218.285Z" fill="#7EC687"/>
<path d="M365.715 218.285H363.43V225.142H365.715V218.285Z" fill="#7EC687"/>
<path d="M444.414 214H449.168L438.783 225.861L451 242H441.434L433.942 232.211L425.369 242H420.612L431.72 229.314L420 214H429.809L436.581 222.947L444.414 214ZM442.746 239.157H445.38L428.378 216.694H425.551L442.746 239.157Z" fill="#7EC687"/>
<rect x="60" y="274" width="107.6" height="74" fill="#E8F5EA"/>
<rect x="60" y="359" width="75" height="11" fill="#E8F5EA"/>
<rect x="187.602" y="274" width="107.6" height="74" fill="#E8F5EA"/>
<rect x="187.602" y="359" width="75" height="11" fill="#E8F5EA"/>
<rect x="315.203" y="274" width="107.6" height="74" fill="#E8F5EA"/>
<rect x="315.203" y="359" width="75" height="11" fill="#E8F5EA"/>
<rect x="442.797" y="274" width="107.6" height="74" fill="#E8F5EA"/>
<rect x="442.797" y="359" width="75" height="11" fill="#E8F5EA"/>
<rect x="570.398" y="274" width="107.6" height="74" fill="#E8F5EA"/>
<rect x="570.398" y="359" width="75" height="11" fill="#E8F5EA"/>
<rect x="60" y="400" width="107.6" height="74" fill="#E8F5EA"/>
<rect x="187.602" y="400" width="107.6" height="74" fill="#E8F5EA"/>
<rect x="315.203" y="400" width="107.6" height="74" fill="#E8F5EA"/>
<rect x="442.797" y="400" width="107.6" height="74" fill="#E8F5EA"/>
<rect x="570.398" y="400" width="107.6" height="74" fill="#E8F5EA"/>
</g>
<path d="M58.4665 60.83L58.8565 63.99C58.9565 64.82 58.0665 65.4 57.3565 64.97L53.8965 62.91C53.6565 62.77 53.5965 62.47 53.7265 62.23C54.2265 61.31 54.4965 60.27 54.4965 59.23C54.4965 55.57 51.3565 52.59 47.4965 52.59C46.7065 52.59 45.9365 52.71 45.2165 52.95C44.8465 53.07 44.4865 52.73 44.5765 52.35C45.4865 48.71 48.9865 46 53.1665 46C58.0465 46 61.9965 49.69 61.9965 54.24C61.9965 56.94 60.6065 59.33 58.4665 60.83Z" fill="#7EC687"/>
<path d="M53 59.2298C53 60.4198 52.56 61.5198 51.82 62.3898C50.83 63.5898 49.26 64.3598 47.5 64.3598L44.89 65.9098C44.45 66.1798 43.89 65.8098 43.95 65.2998L44.2 63.3298C42.86 62.3998 42 60.9098 42 59.2298C42 57.4698 42.94 55.9198 44.38 54.9998C45.27 54.4198 46.34 54.0898 47.5 54.0898C50.54 54.0898 53 56.3898 53 59.2298Z" fill="#7EC687"/>
<path d="M79.416 64.336C78.12 64.336 76.976 64.104 75.984 63.64C74.992 63.176 74.216 62.512 73.656 61.648C73.096 60.784 72.816 59.744 72.816 58.528V57.856H75.936V58.528C75.936 59.536 76.248 60.296 76.872 60.808C77.496 61.304 78.344 61.552 79.416 61.552C80.504 61.552 81.312 61.336 81.84 60.904C82.384 60.472 82.656 59.92 82.656 59.248C82.656 58.784 82.52 58.408 82.248 58.12C81.992 57.832 81.608 57.6 81.096 57.424C80.6 57.232 79.992 57.056 79.272 56.896L78.72 56.776C77.568 56.52 76.576 56.2 75.744 55.816C74.928 55.416 74.296 54.896 73.848 54.256C73.416 53.616 73.2 52.784 73.2 51.76C73.2 50.736 73.44 49.864 73.92 49.144C74.416 48.408 75.104 47.848 75.984 47.464C76.88 47.064 77.928 46.864 79.128 46.864C80.328 46.864 81.392 47.072 82.32 47.488C83.264 47.888 84 48.496 84.528 49.312C85.072 50.112 85.344 51.12 85.344 52.336V53.056H82.224V52.336C82.224 51.696 82.096 51.184 81.84 50.8C81.6 50.4 81.248 50.112 80.784 49.936C80.32 49.744 79.768 49.648 79.128 49.648C78.168 49.648 77.456 49.832 76.992 50.2C76.544 50.552 76.32 51.04 76.32 51.664C76.32 52.08 76.424 52.432 76.632 52.72C76.856 53.008 77.184 53.248 77.616 53.44C78.048 53.632 78.6 53.8 79.272 53.944L79.824 54.064C81.024 54.32 82.064 54.648 82.944 55.048C83.84 55.448 84.536 55.976 85.032 56.632C85.528 57.288 85.776 58.128 85.776 59.152C85.776 60.176 85.512 61.08 84.984 61.864C84.472 62.632 83.736 63.24 82.776 63.688C81.832 64.12 80.712 64.336 79.416 64.336ZM93.8987 64.336C92.7147 64.336 91.6507 64.096 90.7067 63.616C89.7627 63.136 89.0187 62.44 88.4747 61.528C87.9307 60.616 87.6587 59.52 87.6587 58.24V57.856C87.6587 56.576 87.9307 55.48 88.4747 54.568C89.0187 53.656 89.7627 52.96 90.7067 52.48C91.6507 52 92.7147 51.76 93.8987 51.76C95.0827 51.76 96.1467 52 97.0907 52.48C98.0347 52.96 98.7787 53.656 99.3227 54.568C99.8667 55.48 100.139 56.576 100.139 57.856V58.24C100.139 59.52 99.8667 60.616 99.3227 61.528C98.7787 62.44 98.0347 63.136 97.0907 63.616C96.1467 64.096 95.0827 64.336 93.8987 64.336ZM93.8987 61.648C94.8267 61.648 95.5947 61.352 96.2027 60.76C96.8107 60.152 97.1147 59.288 97.1147 58.168V57.928C97.1147 56.808 96.8107 55.952 96.2027 55.36C95.6107 54.752 94.8427 54.448 93.8987 54.448C92.9707 54.448 92.2027 54.752 91.5947 55.36C90.9867 55.952 90.6827 56.808 90.6827 57.928V58.168C90.6827 59.288 90.9867 60.152 91.5947 60.76C92.2027 61.352 92.9707 61.648 93.8987 61.648ZM108.522 64.336C107.37 64.336 106.322 64.096 105.378 63.616C104.45 63.136 103.714 62.44 103.17 61.528C102.626 60.616 102.354 59.512 102.354 58.216V57.88C102.354 56.584 102.626 55.48 103.17 54.568C103.714 53.656 104.45 52.96 105.378 52.48C106.322 52 107.37 51.76 108.522 51.76C109.658 51.76 110.634 51.96 111.45 52.36C112.266 52.76 112.922 53.312 113.418 54.016C113.93 54.704 114.266 55.488 114.426 56.368L111.498 56.992C111.434 56.512 111.29 56.08 111.066 55.696C110.842 55.312 110.522 55.008 110.106 54.784C109.706 54.56 109.202 54.448 108.594 54.448C107.986 54.448 107.434 54.584 106.938 54.856C106.458 55.112 106.074 55.504 105.786 56.032C105.514 56.544 105.378 57.176 105.378 57.928V58.168C105.378 58.92 105.514 59.56 105.786 60.088C106.074 60.6 106.458 60.992 106.938 61.264C107.434 61.52 107.986 61.648 108.594 61.648C109.506 61.648 110.194 61.416 110.658 60.952C111.138 60.472 111.442 59.848 111.57 59.08L114.498 59.776C114.29 60.624 113.93 61.4 113.418 62.104C112.922 62.792 112.266 63.336 111.45 63.736C110.634 64.136 109.658 64.336 108.522 64.336ZM116.993 64V52.096H120.017V64H116.993ZM118.505 50.704C117.961 50.704 117.497 50.528 117.113 50.176C116.745 49.824 116.561 49.36 116.561 48.784C116.561 48.208 116.745 47.744 117.113 47.392C117.497 47.04 117.961 46.864 118.505 46.864C119.065 46.864 119.529 47.04 119.897 47.392C120.265 47.744 120.449 48.208 120.449 48.784C120.449 49.36 120.265 49.824 119.897 50.176C119.529 50.528 119.065 50.704 118.505 50.704ZM127.064 64.336C126.216 64.336 125.456 64.192 124.784 63.904C124.112 63.6 123.576 63.168 123.176 62.608C122.792 62.032 122.6 61.336 122.6 60.52C122.6 59.704 122.792 59.024 123.176 58.48C123.576 57.92 124.12 57.504 124.808 57.232C125.512 56.944 126.312 56.8 127.208 56.8H130.472V56.128C130.472 55.568 130.296 55.112 129.944 54.76C129.592 54.392 129.032 54.208 128.264 54.208C127.512 54.208 126.952 54.384 126.584 54.736C126.216 55.072 125.976 55.512 125.864 56.056L123.08 55.12C123.272 54.512 123.576 53.96 123.992 53.464C124.424 52.952 124.992 52.544 125.696 52.24C126.416 51.92 127.288 51.76 128.312 51.76C129.88 51.76 131.12 52.152 132.032 52.936C132.944 53.72 133.4 54.856 133.4 56.344V60.784C133.4 61.264 133.624 61.504 134.072 61.504H135.032V64H133.016C132.424 64 131.936 63.856 131.552 63.568C131.168 63.28 130.976 62.896 130.976 62.416V62.392H130.52C130.456 62.584 130.312 62.84 130.088 63.16C129.864 63.464 129.512 63.736 129.032 63.976C128.552 64.216 127.896 64.336 127.064 64.336ZM127.592 61.888C128.44 61.888 129.128 61.656 129.656 61.192C130.2 60.712 130.472 60.08 130.472 59.296V59.056H127.424C126.864 59.056 126.424 59.176 126.104 59.416C125.784 59.656 125.624 59.992 125.624 60.424C125.624 60.856 125.792 61.208 126.128 61.48C126.464 61.752 126.952 61.888 127.592 61.888ZM137.243 64V47.2H140.267V64H137.243ZM152.777 64V50.08H147.881V47.2H160.841V50.08H155.945V64H152.777ZM161.453 64V52.096H164.429V53.44H164.861C165.037 52.96 165.325 52.608 165.725 52.384C166.141 52.16 166.621 52.048 167.165 52.048H168.605V54.736H167.117C166.349 54.736 165.717 54.944 165.221 55.36C164.725 55.76 164.477 56.384 164.477 57.232V64H161.453ZM174.384 64.336C173.536 64.336 172.776 64.192 172.104 63.904C171.432 63.6 170.896 63.168 170.496 62.608C170.112 62.032 169.92 61.336 169.92 60.52C169.92 59.704 170.112 59.024 170.496 58.48C170.896 57.92 171.44 57.504 172.128 57.232C172.832 56.944 173.632 56.8 174.528 56.8H177.792V56.128C177.792 55.568 177.616 55.112 177.264 54.76C176.912 54.392 176.352 54.208 175.584 54.208C174.832 54.208 174.272 54.384 173.904 54.736C173.536 55.072 173.296 55.512 173.184 56.056L170.4 55.12C170.592 54.512 170.896 53.96 171.312 53.464C171.744 52.952 172.312 52.544 173.016 52.24C173.736 51.92 174.608 51.76 175.632 51.76C177.2 51.76 178.44 52.152 179.352 52.936C180.264 53.72 180.72 54.856 180.72 56.344V60.784C180.72 61.264 180.944 61.504 181.392 61.504H182.352V64H180.336C179.744 64 179.256 63.856 178.872 63.568C178.488 63.28 178.296 62.896 178.296 62.416V62.392H177.84C177.776 62.584 177.632 62.84 177.408 63.16C177.184 63.464 176.832 63.736 176.352 63.976C175.872 64.216 175.216 64.336 174.384 64.336ZM174.912 61.888C175.76 61.888 176.448 61.656 176.976 61.192C177.52 60.712 177.792 60.08 177.792 59.296V59.056H174.744C174.184 59.056 173.744 59.176 173.424 59.416C173.104 59.656 172.944 59.992 172.944 60.424C172.944 60.856 173.112 61.208 173.448 61.48C173.784 61.752 174.272 61.888 174.912 61.888ZM193.488 64V54.592H191.088V52.096H193.488V49.888C193.488 49.072 193.728 48.424 194.208 47.944C194.704 47.448 195.344 47.2 196.128 47.2H199.008V49.696H197.184C196.736 49.696 196.512 49.936 196.512 50.416V52.096H201.312V54.592H196.512V64H193.488ZM185.664 64V54.592H182.64V52.096H185.664V49.888C185.664 49.072 185.904 48.424 186.384 47.944C186.88 47.448 187.52 47.2 188.304 47.2H191.424V49.696H189.36C188.912 49.696 188.688 49.936 188.688 50.416V52.096H191.088V54.592H188.688V64H185.664ZM201.312 64V52.096H204.336V64H201.312ZM202.824 50.8C202.28 50.8 201.816 50.624 201.432 50.272C201.064 49.92 200.88 49.456 200.88 48.88C200.88 48.304 201.064 47.84 201.432 47.488C201.816 47.136 202.28 46.96 202.824 46.96C203.384 46.96 203.848 47.136 204.216 47.488C204.584 47.84 204.768 48.304 204.768 48.88C204.768 49.456 204.584 49.92 204.216 50.272C203.848 50.624 203.384 50.8 202.824 50.8ZM213.288 64.336C212.136 64.336 211.088 64.096 210.144 63.616C209.216 63.136 208.48 62.44 207.936 61.528C207.392 60.616 207.12 59.512 207.12 58.216V57.88C207.12 56.584 207.392 55.48 207.936 54.568C208.48 53.656 209.216 52.96 210.144 52.48C211.088 52 212.136 51.76 213.288 51.76C214.424 51.76 215.4 51.96 216.216 52.36C217.032 52.76 217.688 53.312 218.184 54.016C218.696 54.704 219.032 55.488 219.192 56.368L216.264 56.992C216.2 56.512 216.056 56.08 215.832 55.696C215.608 55.312 215.288 55.008 214.872 54.784C214.472 54.56 213.968 54.448 213.36 54.448C212.752 54.448 212.2 54.584 211.704 54.856C211.224 55.112 210.84 55.504 210.552 56.032C210.28 56.544 210.144 57.176 210.144 57.928V58.168C210.144 58.92 210.28 59.56 210.552 60.088C210.84 60.6 211.224 60.992 211.704 61.264C212.2 61.52 212.752 61.648 213.36 61.648C214.272 61.648 214.96 61.416 215.424 60.952C215.904 60.472 216.208 59.848 216.336 59.08L219.264 59.776C219.056 60.624 218.696 61.4 218.184 62.104C217.688 62.792 217.032 63.336 216.216 63.736C215.4 64.136 214.424 64.336 213.288 64.336Z" fill="#7EC687"/>
<rect y="332" width="738" height="100" fill="url(#paint0_linear_197_13946)"/>
<defs>
<linearGradient id="paint0_linear_197_13946" x1="369" y1="332" x2="369" y2="432" gradientUnits="userSpaceOnUse">
<stop stop-color="#E8F5EA" stop-opacity="0"/>
<stop offset="1" stop-color="#E8F5EA"/>
</linearGradient>
<clipPath id="clip0_197_13946">
<path d="M40 118C40 109.163 47.1634 102 56 102H682C690.837 102 698 109.163 698 118V432H40V118Z" fill="white"/>
</clipPath>
<clipPath id="clip1_197_13946">
<rect width="32" height="32" fill="white" transform="translate(60 212)"/>
</clipPath>
<clipPath id="clip2_197_13946">
<rect width="32" height="32" fill="white" transform="translate(204 212)"/>
</clipPath>
<clipPath id="clip3_197_13946">
<rect width="32" height="32" fill="white" transform="translate(276 212)"/>
</clipPath>
</defs>
</svg>
