<svg width="738" height="432" viewBox="0 0 738 432" fill="none" xmlns="http://www.w3.org/2000/svg">
<rect width="738" height="432" fill="#F5E8E6"/>
<g clip-path="url(#clip0_197_13969)">
<path d="M273 62C273 53.1635 280.163 46 289 46H449C457.837 46 465 53.1634 465 62V432H273V62Z" fill="#E48364" fill-opacity="0.2"/>
<path d="M285.164 100H452.164V287H285.164V100Z" fill="#E48364" fill-opacity="0.2"/>
<path d="M285.164 297H452.164V371H285.164V297Z" fill="#E48364" fill-opacity="0.2"/>
<rect x="285.164" y="382" width="75" height="11" fill="#E48364" fill-opacity="0.2"/>
<rect x="285.164" y="403" width="167" height="74" fill="#E48364" fill-opacity="0.2"/>
<rect x="273.164" y="46" width="192" height="54" fill="#F2D4CC"/>
<path fill-rule="evenodd" clip-rule="evenodd" d="M296 82C300.971 82 305 77.9706 305 73C305 68.0294 300.971 64 296 64C291.029 64 287 68.0294 287 73C287 77.9706 291.029 82 296 82Z" fill="#F0C3B7"/>
<rect x="309" y="64" width="75" height="7" rx="3.5" fill="#F0C3B7"/>
<rect x="309" y="75" width="36" height="7" rx="3.5" fill="#F0C3B7"/>
</g>
<g clip-path="url(#clip1_197_13969)">
<path d="M44 115C44 106.163 51.1634 99 60 99H220C228.837 99 236 106.163 236 115V432H44V115Z" fill="#E48364" fill-opacity="0.2"/>
<path d="M56.1641 153H223.164V227H56.1641V153Z" fill="#E48364" fill-opacity="0.2"/>
<rect x="56.1641" y="238" width="75" height="11" fill="#E48364" fill-opacity="0.2"/>
<path d="M56.1641 259H223.164V333H56.1641V259Z" fill="#E48364" fill-opacity="0.2"/>
<rect x="56.1641" y="344" width="75" height="11" fill="#E48364" fill-opacity="0.2"/>
<rect x="56.1641" y="365" width="167" height="74" fill="#E48364" fill-opacity="0.2"/>
<rect x="44.1641" y="99" width="192" height="54" fill="#F2D4CC"/>
<path fill-rule="evenodd" clip-rule="evenodd" d="M67 135C71.9706 135 76 130.971 76 126C76 121.029 71.9706 117 67 117C62.0294 117 58 121.029 58 126C58 130.971 62.0294 135 67 135Z" fill="#F0C3B7"/>
<rect x="80" y="117" width="75" height="7" rx="3.5" fill="#F0C3B7"/>
<rect x="80" y="128" width="36" height="7" rx="3.5" fill="#F0C3B7"/>
</g>
<g clip-path="url(#clip2_197_13969)">
<path d="M502 115C502 106.163 509.163 99 518 99H678C686.837 99 694 106.163 694 115V432H502V115Z" fill="#E48364" fill-opacity="0.2"/>
<path d="M514.164 153H593.664V227H514.164V153Z" fill="#E48364" fill-opacity="0.2"/>
<rect x="514.164" y="238" width="75" height="11" fill="#E48364" fill-opacity="0.2"/>
<path d="M601.664 153H681.164V227H601.664V153Z" fill="#E48364" fill-opacity="0.2"/>
<rect x="601.664" y="238" width="75" height="11" fill="#E48364" fill-opacity="0.2"/>
<rect x="514.164" y="259" width="167" height="74" fill="#E48364" fill-opacity="0.2"/>
<path d="M514.164 343H593.664V417H514.164V343Z" fill="#E48364" fill-opacity="0.2"/>
<rect x="514.164" y="428" width="75" height="11" fill="#E48364" fill-opacity="0.2"/>
<path d="M601.664 343H681.164V417H601.664V343Z" fill="#E48364" fill-opacity="0.2"/>
<rect x="601.664" y="428" width="75" height="11" fill="#E48364" fill-opacity="0.2"/>
<rect x="502.164" y="99" width="192" height="54" fill="#F2D4CC"/>
<path fill-rule="evenodd" clip-rule="evenodd" d="M525 135C529.971 135 534 130.971 534 126C534 121.029 529.971 117 525 117C520.029 117 516 121.029 516 126C516 130.971 520.029 135 525 135Z" fill="#F0C3B7"/>
<rect x="538" y="117" width="75" height="7" rx="3.5" fill="#F0C3B7"/>
<rect x="538" y="128" width="36" height="7" rx="3.5" fill="#F0C3B7"/>
</g>
<path d="M56.24 46H47.76C45 46 44 47 44 49.81V62.19C44 65 45 66 47.76 66H56.23C59 66 60 65 60 62.19V49.81C60 47 59 46 56.24 46ZM52 63.3C51.04 63.3 50.25 62.51 50.25 61.55C50.25 60.59 51.04 59.8 52 59.8C52.96 59.8 53.75 60.59 53.75 61.55C53.75 62.51 52.96 63.3 52 63.3ZM54 50.25H50C49.59 50.25 49.25 49.91 49.25 49.5C49.25 49.09 49.59 48.75 50 48.75H54C54.41 48.75 54.75 49.09 54.75 49.5C54.75 49.91 54.41 50.25 54 50.25Z" fill="#E48364"/>
<path d="M72.432 64L76.848 47.2H82.368L86.784 64H83.52L82.608 60.304H76.608L75.696 64H72.432ZM77.352 57.376H81.864L79.824 49.192H79.392L77.352 57.376ZM88.8909 68.8V52.096H91.8669V53.536H92.2989C92.5709 53.072 92.9949 52.664 93.5709 52.312C94.1469 51.944 94.9709 51.76 96.0429 51.76C97.0029 51.76 97.8909 52 98.7069 52.48C99.5229 52.944 100.179 53.632 100.675 54.544C101.171 55.456 101.419 56.56 101.419 57.856V58.24C101.419 59.536 101.171 60.64 100.675 61.552C100.179 62.464 99.5229 63.16 98.7069 63.64C97.8909 64.104 97.0029 64.336 96.0429 64.336C95.3229 64.336 94.7149 64.248 94.2189 64.072C93.7389 63.912 93.3469 63.704 93.0429 63.448C92.7549 63.176 92.5229 62.904 92.3469 62.632H91.9149V68.8H88.8909ZM95.1309 61.696C96.0749 61.696 96.8509 61.4 97.4589 60.808C98.0829 60.2 98.3949 59.32 98.3949 58.168V57.928C98.3949 56.776 98.0829 55.904 97.4589 55.312C96.8349 54.704 96.0589 54.4 95.1309 54.4C94.2029 54.4 93.4269 54.704 92.8029 55.312C92.1789 55.904 91.8669 56.776 91.8669 57.928V58.168C91.8669 59.32 92.1789 60.2 92.8029 60.808C93.4269 61.4 94.2029 61.696 95.1309 61.696ZM104.196 68.8V52.096H107.172V53.536H107.604C107.876 53.072 108.3 52.664 108.876 52.312C109.452 51.944 110.276 51.76 111.348 51.76C112.308 51.76 113.196 52 114.012 52.48C114.828 52.944 115.484 53.632 115.98 54.544C116.476 55.456 116.724 56.56 116.724 57.856V58.24C116.724 59.536 116.476 60.64 115.98 61.552C115.484 62.464 114.828 63.16 114.012 63.64C113.196 64.104 112.308 64.336 111.348 64.336C110.628 64.336 110.02 64.248 109.524 64.072C109.044 63.912 108.652 63.704 108.348 63.448C108.06 63.176 107.828 62.904 107.652 62.632H107.22V68.8H104.196ZM110.436 61.696C111.38 61.696 112.156 61.4 112.764 60.808C113.388 60.2 113.7 59.32 113.7 58.168V57.928C113.7 56.776 113.388 55.904 112.764 55.312C112.14 54.704 111.364 54.4 110.436 54.4C109.508 54.4 108.732 54.704 108.108 55.312C107.484 55.904 107.172 56.776 107.172 57.928V58.168C107.172 59.32 107.484 60.2 108.108 60.808C108.732 61.4 109.508 61.696 110.436 61.696ZM124.444 64.336C122.892 64.336 121.62 64 120.628 63.328C119.636 62.656 119.036 61.696 118.828 60.448L121.612 59.728C121.724 60.288 121.908 60.728 122.164 61.048C122.436 61.368 122.764 61.6 123.148 61.744C123.548 61.872 123.98 61.936 124.444 61.936C125.148 61.936 125.668 61.816 126.004 61.576C126.34 61.32 126.508 61.008 126.508 60.64C126.508 60.272 126.348 59.992 126.028 59.8C125.708 59.592 125.196 59.424 124.492 59.296L123.82 59.176C122.988 59.016 122.228 58.8 121.54 58.528C120.852 58.24 120.3 57.848 119.884 57.352C119.468 56.856 119.26 56.216 119.26 55.432C119.26 54.248 119.692 53.344 120.556 52.72C121.42 52.08 122.556 51.76 123.964 51.76C125.292 51.76 126.396 52.056 127.276 52.648C128.156 53.24 128.732 54.016 129.004 54.976L126.196 55.84C126.068 55.232 125.804 54.8 125.404 54.544C125.02 54.288 124.54 54.16 123.964 54.16C123.388 54.16 122.948 54.264 122.644 54.472C122.34 54.664 122.188 54.936 122.188 55.288C122.188 55.672 122.348 55.96 122.668 56.152C122.988 56.328 123.42 56.464 123.964 56.56L124.636 56.68C125.532 56.84 126.34 57.056 127.06 57.328C127.796 57.584 128.372 57.96 128.788 58.456C129.22 58.936 129.436 59.592 129.436 60.424C129.436 61.672 128.98 62.64 128.068 63.328C127.172 64 125.964 64.336 124.444 64.336Z" fill="#E48364"/>
<rect y="332" width="738" height="100" fill="url(#paint0_linear_197_13969)"/>
<defs>
<linearGradient id="paint0_linear_197_13969" x1="369" y1="332" x2="369" y2="432" gradientUnits="userSpaceOnUse">
<stop stop-color="#F5E8E6" stop-opacity="0"/>
<stop offset="1" stop-color="#F5E8E6"/>
</linearGradient>
<clipPath id="clip0_197_13969">
<path d="M273 62C273 53.1635 280.163 46 289 46H449C457.837 46 465 53.1634 465 62V432H273V62Z" fill="white"/>
</clipPath>
<clipPath id="clip1_197_13969">
<path d="M44 115C44 106.163 51.1634 99 60 99H220C228.837 99 236 106.163 236 115V432H44V115Z" fill="white"/>
</clipPath>
<clipPath id="clip2_197_13969">
<path d="M502 115C502 106.163 509.163 99 518 99H678C686.837 99 694 106.163 694 115V432H502V115Z" fill="white"/>
</clipPath>
</defs>
</svg>
