<svg width="738" height="432" viewBox="0 0 738 432" fill="none" xmlns="http://www.w3.org/2000/svg">
<g clip-path="url(#clip0_197_14013)">
<rect width="738" height="432" fill="#E3F2FD"/>
<path d="M235 46C235 37.1634 242.163 30 251 30H877C885.837 30 893 37.1634 893 46V445H235V46Z" fill="#90CAF9"/>
<path fill-rule="evenodd" clip-rule="evenodd" d="M261.462 63C265.03 63 267.923 60.0899 267.923 56.5C267.923 52.9101 265.03 50 261.462 50C257.893 50 255 52.9101 255 56.5C255 60.0899 257.893 63 261.462 63Z" fill="#BBDEFB"/>
<path fill-rule="evenodd" clip-rule="evenodd" d="M283.383 63C286.952 63 289.845 60.0899 289.845 56.5C289.845 52.9101 286.952 50 283.383 50C279.815 50 276.922 52.9101 276.922 56.5C276.922 60.0899 279.815 63 283.383 63Z" fill="#BBDEFB"/>
<path fill-rule="evenodd" clip-rule="evenodd" d="M305.305 63C308.874 63 311.767 60.0899 311.767 56.5C311.767 52.9101 308.874 50 305.305 50C301.737 50 298.844 52.9101 298.844 56.5C298.844 60.0899 301.737 63 305.305 63Z" fill="#BBDEFB"/>
<rect x="255" y="83" width="618" height="33" fill="#BBDEFB"/>
<rect x="255" y="146" width="487" height="11" fill="#BBDEFB"/>
<rect x="255" y="162" width="336" height="11" fill="#BBDEFB"/>
<rect x="255" y="203" width="107.6" height="74" fill="#BBDEFB"/>
<rect x="255" y="288" width="75" height="11" fill="#BBDEFB"/>
<rect x="382.602" y="203" width="107.6" height="74" fill="#BBDEFB"/>
<rect x="382.602" y="288" width="75" height="11" fill="#BBDEFB"/>
<rect x="510.203" y="203" width="107.6" height="74" fill="#BBDEFB"/>
<rect x="510.203" y="288" width="75" height="11" fill="#BBDEFB"/>
<rect x="637.797" y="203" width="107.6" height="74" fill="#BBDEFB"/>
<rect x="637.797" y="288" width="75" height="11" fill="#BBDEFB"/>
<rect x="255" y="329" width="107.6" height="74" fill="#BBDEFB"/>
<rect x="255" y="414" width="75" height="11" fill="#BBDEFB"/>
<rect x="382.602" y="329" width="107.6" height="74" fill="#BBDEFB"/>
<rect x="382.602" y="414" width="75" height="11" fill="#BBDEFB"/>
<rect x="510.203" y="329" width="107.6" height="74" fill="#BBDEFB"/>
<rect x="510.203" y="414" width="75" height="11" fill="#BBDEFB"/>
<rect x="637.797" y="329" width="107.6" height="74" fill="#BBDEFB"/>
<rect x="637.797" y="414" width="75" height="11" fill="#BBDEFB"/>
<g clip-path="url(#clip1_197_14013)">
<path d="M40 118C40 109.163 47.1634 102 56 102H682C690.837 102 698 109.163 698 118V432H40V118Z" fill="white"/>
<path fill-rule="evenodd" clip-rule="evenodd" d="M66.4615 135C70.0301 135 72.9231 132.09 72.9231 128.5C72.9231 124.91 70.0301 122 66.4615 122C62.8929 122 60 124.91 60 128.5C60 132.09 62.8929 135 66.4615 135Z" fill="#90CAF9"/>
<path fill-rule="evenodd" clip-rule="evenodd" d="M88.3834 135C91.952 135 94.845 132.09 94.845 128.5C94.845 124.91 91.952 122 88.3834 122C84.8148 122 81.9219 124.91 81.9219 128.5C81.9219 132.09 84.8148 135 88.3834 135Z" fill="#90CAF9"/>
<path fill-rule="evenodd" clip-rule="evenodd" d="M110.305 135C113.874 135 116.767 132.09 116.767 128.5C116.767 124.91 113.874 122 110.305 122C106.737 122 103.844 124.91 103.844 128.5C103.844 132.09 106.737 135 110.305 135Z" fill="#90CAF9"/>
<rect x="60" y="155" width="192.667" height="33" fill="#BBDEFB"/>
<rect x="272.664" y="155" width="192.667" height="33" fill="#BBDEFB"/>
<rect x="485.336" y="155" width="192.667" height="33" fill="#BBDEFB"/>
<rect x="60" y="218" width="487" height="11" fill="#BBDEFB"/>
<rect x="60" y="234" width="336" height="11" fill="#BBDEFB"/>
<rect x="60" y="275" width="107.6" height="74" fill="#BBDEFB"/>
<rect x="60" y="360" width="75" height="11" fill="#BBDEFB"/>
<rect x="187.602" y="275" width="107.6" height="74" fill="#BBDEFB"/>
<rect x="187.602" y="360" width="75" height="11" fill="#BBDEFB"/>
<rect x="315.203" y="275" width="107.6" height="74" fill="#BBDEFB"/>
<rect x="315.203" y="360" width="75" height="11" fill="#BBDEFB"/>
<rect x="442.797" y="275" width="107.6" height="74" fill="#BBDEFB"/>
<rect x="442.797" y="360" width="75" height="11" fill="#BBDEFB"/>
<rect x="570.398" y="275" width="107.6" height="74" fill="#BBDEFB"/>
<rect x="570.398" y="360" width="75" height="11" fill="#BBDEFB"/>
<rect x="60" y="401" width="107.6" height="74" fill="#BBDEFB"/>
<rect x="187.602" y="401" width="107.6" height="74" fill="#BBDEFB"/>
<rect x="315.203" y="401" width="107.6" height="74" fill="#BBDEFB"/>
<rect x="442.797" y="401" width="107.6" height="74" fill="#BBDEFB"/>
<rect x="570.398" y="401" width="107.6" height="74" fill="#BBDEFB"/>
</g>
<path d="M57.56 46H46.41C43.98 46 42 47.98 42 50.41V56.91V57.11C42 59.55 43.98 61.52 46.41 61.52H50.25C50.8 61.52 51.25 61.97 51.25 62.52V63.49C51.25 64.04 50.8 64.49 50.25 64.49H47.83C47.42 64.49 47.08 64.83 47.08 65.24C47.08 65.65 47.41 66 47.83 66H56.18C56.59 66 56.93 65.66 56.93 65.25C56.93 64.84 56.59 64.5 56.18 64.5H53.76C53.21 64.5 52.76 64.05 52.76 63.5V62.53C52.76 61.98 53.21 61.53 53.76 61.53H57.57C60.01 61.53 61.98 59.55 61.98 57.12V56.92V50.42C61.97 47.98 59.99 46 57.56 46Z" fill="#1E88E5"/>
<path d="M74.928 64L72.72 47.2H75.864L77.496 61.792H77.928L80.04 47.2H85.512L87.624 61.792H88.056L89.688 47.2H92.832L90.624 64H85.152L82.992 49.072H82.56L80.4 64H74.928ZM100.526 64.336C99.3419 64.336 98.2939 64.088 97.3819 63.592C96.4859 63.08 95.7819 62.368 95.2699 61.456C94.7739 60.528 94.5259 59.44 94.5259 58.192V57.904C94.5259 56.656 94.7739 55.576 95.2699 54.664C95.7659 53.736 96.4619 53.024 97.3579 52.528C98.2539 52.016 99.2939 51.76 100.478 51.76C101.646 51.76 102.662 52.024 103.526 52.552C104.39 53.064 105.062 53.784 105.542 54.712C106.022 55.624 106.262 56.688 106.262 57.904V58.936H97.5979C97.6299 59.752 97.9339 60.416 98.5099 60.928C99.0859 61.44 99.7899 61.696 100.622 61.696C101.47 61.696 102.094 61.512 102.494 61.144C102.894 60.776 103.198 60.368 103.406 59.92L105.878 61.216C105.654 61.632 105.326 62.088 104.894 62.584C104.478 63.064 103.918 63.48 103.214 63.832C102.51 64.168 101.614 64.336 100.526 64.336ZM97.6219 56.68H103.19C103.126 55.992 102.846 55.44 102.35 55.024C101.87 54.608 101.238 54.4 100.454 54.4C99.6379 54.4 98.9899 54.608 98.5099 55.024C98.0299 55.44 97.7339 55.992 97.6219 56.68ZM116.105 64.336C115.033 64.336 114.209 64.152 113.633 63.784C113.057 63.416 112.633 63.008 112.361 62.56H111.929V64H108.953V47.2H111.977V53.464H112.409C112.585 53.176 112.817 52.904 113.105 52.648C113.409 52.392 113.801 52.184 114.281 52.024C114.777 51.848 115.385 51.76 116.105 51.76C117.065 51.76 117.953 52 118.769 52.48C119.585 52.944 120.241 53.632 120.737 54.544C121.233 55.456 121.481 56.56 121.481 57.856V58.24C121.481 59.536 121.233 60.64 120.737 61.552C120.241 62.464 119.585 63.16 118.769 63.64C117.953 64.104 117.065 64.336 116.105 64.336ZM115.193 61.696C116.121 61.696 116.897 61.4 117.521 60.808C118.145 60.2 118.457 59.32 118.457 58.168V57.928C118.457 56.776 118.145 55.904 117.521 55.312C116.913 54.704 116.137 54.4 115.193 54.4C114.265 54.4 113.489 54.704 112.865 55.312C112.241 55.904 111.929 56.776 111.929 57.928V58.168C111.929 59.32 112.241 60.2 112.865 60.808C113.489 61.4 114.265 61.696 115.193 61.696ZM129.202 64.336C127.65 64.336 126.378 64 125.386 63.328C124.394 62.656 123.794 61.696 123.586 60.448L126.37 59.728C126.482 60.288 126.666 60.728 126.922 61.048C127.194 61.368 127.522 61.6 127.906 61.744C128.306 61.872 128.738 61.936 129.202 61.936C129.906 61.936 130.426 61.816 130.762 61.576C131.098 61.32 131.266 61.008 131.266 60.64C131.266 60.272 131.106 59.992 130.786 59.8C130.466 59.592 129.954 59.424 129.25 59.296L128.578 59.176C127.746 59.016 126.986 58.8 126.298 58.528C125.61 58.24 125.058 57.848 124.642 57.352C124.226 56.856 124.018 56.216 124.018 55.432C124.018 54.248 124.45 53.344 125.314 52.72C126.178 52.08 127.314 51.76 128.722 51.76C130.05 51.76 131.154 52.056 132.034 52.648C132.914 53.24 133.49 54.016 133.762 54.976L130.954 55.84C130.826 55.232 130.562 54.8 130.162 54.544C129.778 54.288 129.298 54.16 128.722 54.16C128.146 54.16 127.706 54.264 127.402 54.472C127.098 54.664 126.946 54.936 126.946 55.288C126.946 55.672 127.106 55.96 127.426 56.152C127.746 56.328 128.178 56.464 128.722 56.56L129.394 56.68C130.29 56.84 131.098 57.056 131.818 57.328C132.554 57.584 133.13 57.96 133.546 58.456C133.978 58.936 134.194 59.592 134.194 60.424C134.194 61.672 133.738 62.64 132.826 63.328C131.93 64 130.722 64.336 129.202 64.336ZM136.844 64V52.096H139.868V64H136.844ZM138.356 50.704C137.812 50.704 137.348 50.528 136.964 50.176C136.596 49.824 136.412 49.36 136.412 48.784C136.412 48.208 136.596 47.744 136.964 47.392C137.348 47.04 137.812 46.864 138.356 46.864C138.916 46.864 139.38 47.04 139.748 47.392C140.116 47.744 140.3 48.208 140.3 48.784C140.3 49.36 140.116 49.824 139.748 50.176C139.38 50.528 138.916 50.704 138.356 50.704ZM147.779 64C146.995 64 146.355 63.76 145.859 63.28C145.379 62.784 145.139 62.128 145.139 61.312V54.592H142.163V52.096H145.139V48.4H148.163V52.096H151.427V54.592H148.163V60.784C148.163 61.264 148.387 61.504 148.835 61.504H151.139V64H147.779ZM159.167 64.336C157.983 64.336 156.935 64.088 156.023 63.592C155.127 63.08 154.423 62.368 153.911 61.456C153.415 60.528 153.167 59.44 153.167 58.192V57.904C153.167 56.656 153.415 55.576 153.911 54.664C154.407 53.736 155.103 53.024 155.999 52.528C156.895 52.016 157.935 51.76 159.118 51.76C160.287 51.76 161.303 52.024 162.167 52.552C163.031 53.064 163.703 53.784 164.182 54.712C164.663 55.624 164.903 56.688 164.903 57.904V58.936H156.239C156.271 59.752 156.575 60.416 157.151 60.928C157.727 61.44 158.431 61.696 159.263 61.696C160.111 61.696 160.735 61.512 161.135 61.144C161.535 60.776 161.839 60.368 162.047 59.92L164.519 61.216C164.295 61.632 163.967 62.088 163.535 62.584C163.119 63.064 162.559 63.48 161.855 63.832C161.151 64.168 160.255 64.336 159.167 64.336ZM156.263 56.68H161.831C161.767 55.992 161.487 55.44 160.991 55.024C160.511 54.608 159.879 54.4 159.095 54.4C158.279 54.4 157.631 54.608 157.151 55.024C156.671 55.44 156.375 55.992 156.263 56.68ZM172.538 64.336C170.986 64.336 169.714 64 168.722 63.328C167.73 62.656 167.13 61.696 166.922 60.448L169.706 59.728C169.818 60.288 170.002 60.728 170.258 61.048C170.53 61.368 170.858 61.6 171.242 61.744C171.642 61.872 172.074 61.936 172.538 61.936C173.242 61.936 173.762 61.816 174.098 61.576C174.434 61.32 174.602 61.008 174.602 60.64C174.602 60.272 174.442 59.992 174.122 59.8C173.802 59.592 173.29 59.424 172.586 59.296L171.914 59.176C171.082 59.016 170.322 58.8 169.634 58.528C168.946 58.24 168.394 57.848 167.978 57.352C167.562 56.856 167.354 56.216 167.354 55.432C167.354 54.248 167.786 53.344 168.65 52.72C169.514 52.08 170.65 51.76 172.058 51.76C173.386 51.76 174.49 52.056 175.37 52.648C176.25 53.24 176.826 54.016 177.098 54.976L174.29 55.84C174.162 55.232 173.898 54.8 173.498 54.544C173.114 54.288 172.634 54.16 172.058 54.16C171.482 54.16 171.042 54.264 170.738 54.472C170.434 54.664 170.282 54.936 170.282 55.288C170.282 55.672 170.442 55.96 170.762 56.152C171.082 56.328 171.514 56.464 172.058 56.56L172.73 56.68C173.626 56.84 174.434 57.056 175.154 57.328C175.89 57.584 176.466 57.96 176.882 58.456C177.314 58.936 177.53 59.592 177.53 60.424C177.53 61.672 177.074 62.64 176.162 63.328C175.266 64 174.058 64.336 172.538 64.336Z" fill="#1E88E5"/>
<rect y="332" width="738" height="100" fill="url(#paint0_linear_197_14013)"/>
</g>
<defs>
<linearGradient id="paint0_linear_197_14013" x1="369" y1="332" x2="369" y2="432" gradientUnits="userSpaceOnUse">
<stop stop-color="#E3F2FD" stop-opacity="0"/>
<stop offset="1" stop-color="#E3F2FD"/>
</linearGradient>
<clipPath id="clip0_197_14013">
<rect width="738" height="432" fill="white"/>
</clipPath>
<clipPath id="clip1_197_14013">
<path d="M40 118C40 109.163 47.1634 102 56 102H682C690.837 102 698 109.163 698 118V432H40V118Z" fill="white"/>
</clipPath>
</defs>
</svg>
