<svg width="860" height="416" viewBox="0 0 860 416" fill="none" xmlns="http://www.w3.org/2000/svg">
<g clip-path="url(#clip0_197_10936)">
<path d="M0 22.1935C0 9.93638 9.93639 0 22.1935 0H837.806C850.064 0 860 9.93639 860 22.1935V416H0V22.1935Z" fill="#F5E8E6"/>
<path fill-rule="evenodd" clip-rule="evenodd" d="M36.705 45.7744C41.655 45.7744 45.6677 41.7378 45.6677 36.7583C45.6677 31.7788 41.655 27.7422 36.705 27.7422C31.755 27.7422 27.7422 31.7788 27.7422 36.7583C27.7422 41.7378 31.755 45.7744 36.705 45.7744Z" fill="#E48364"/>
<path fill-rule="evenodd" clip-rule="evenodd" d="M67.1112 45.7744C72.0612 45.7744 76.074 41.7378 76.074 36.7583C76.074 31.7788 72.0612 27.7422 67.1112 27.7422C62.1612 27.7422 58.1484 31.7788 58.1484 36.7583C58.1484 41.7378 62.1612 45.7744 67.1112 45.7744Z" fill="#E48364"/>
<path fill-rule="evenodd" clip-rule="evenodd" d="M97.5253 45.7744C102.475 45.7744 106.488 41.7378 106.488 36.7583C106.488 31.7788 102.475 27.7422 97.5253 27.7422C92.5753 27.7422 88.5625 31.7788 88.5625 36.7583C88.5625 41.7378 92.5753 45.7744 97.5253 45.7744Z" fill="#E48364"/>
<rect x="27.7422" y="73.5156" width="790.645" height="45.7742" fill="#E48364" fill-opacity="0.2"/>
<rect x="27.7422" y="147.031" width="755.968" height="15.2581" fill="#E48364" fill-opacity="0.2"/>
<rect x="27.7422" y="169.227" width="466.065" height="15.2581" fill="#E48364" fill-opacity="0.2"/>
<rect x="27.7422" y="212.227" width="131.774" height="102.645" fill="#E48364" fill-opacity="0.2"/>
<rect x="27.7422" y="330.129" width="104.032" height="15.2581" fill="#E48364" fill-opacity="0.2"/>
<rect x="192.461" y="212.227" width="131.774" height="102.645" fill="#E48364" fill-opacity="0.2"/>
<rect x="192.461" y="330.129" width="104.032" height="15.2581" fill="#E48364" fill-opacity="0.2"/>
<rect x="357.18" y="212.227" width="131.774" height="102.645" fill="#E48364" fill-opacity="0.2"/>
<rect x="357.18" y="330.129" width="104.032" height="15.2581" fill="#E48364" fill-opacity="0.2"/>
<rect x="521.898" y="212.227" width="131.774" height="102.645" fill="#E48364" fill-opacity="0.2"/>
<rect x="521.898" y="330.129" width="104.032" height="15.2581" fill="#E48364" fill-opacity="0.2"/>
<rect x="686.609" y="212.227" width="131.774" height="102.645" fill="#E48364" fill-opacity="0.2"/>
<rect x="686.609" y="330.129" width="104.032" height="15.2581" fill="#E48364" fill-opacity="0.2"/>
</g>
<defs>
<clipPath id="clip0_197_10936">
<path d="M0 22.1935C0 9.93638 9.93639 0 22.1935 0H837.806C850.064 0 860 9.93639 860 22.1935V416H0V22.1935Z" fill="white"/>
</clipPath>
</defs>
</svg>
