<svg width="860" height="416" viewBox="0 0 860 416" fill="none" xmlns="http://www.w3.org/2000/svg">
<g clip-path="url(#clip0_197_10928)">
<path d="M0 22.1935C0 9.93638 9.93639 0 22.1935 0H837.806C850.064 0 860 9.93639 860 22.1935V416H0V22.1935Z" fill="#1E88E5"/>
<g opacity="0.5">
<path fill-rule="evenodd" clip-rule="evenodd" d="M29.7675 38.8369C34.7175 38.8369 38.7302 34.8003 38.7302 29.8208C38.7302 24.8413 34.7175 20.8047 29.7675 20.8047C24.8175 20.8047 20.8047 24.8413 20.8047 29.8208C20.8047 34.8003 24.8175 38.8369 29.7675 38.8369Z" fill="#E3F2FD"/>
<path fill-rule="evenodd" clip-rule="evenodd" d="M60.1737 38.8369C65.1237 38.8369 69.1365 34.8003 69.1365 29.8208C69.1365 24.8413 65.1237 20.8047 60.1737 20.8047C55.2237 20.8047 51.2109 24.8413 51.2109 29.8208C51.2109 34.8003 55.2237 38.8369 60.1737 38.8369Z" fill="#E3F2FD"/>
<path fill-rule="evenodd" clip-rule="evenodd" d="M90.5878 38.8369C95.5378 38.8369 99.5506 34.8003 99.5506 29.8208C99.5506 24.8413 95.5378 20.8047 90.5878 20.8047C85.6378 20.8047 81.625 24.8413 81.625 29.8208C81.625 34.8003 85.6378 38.8369 90.5878 38.8369Z" fill="#E3F2FD"/>
</g>
<path d="M0 22.1936C0 9.93639 9.93639 0 22.1935 0H837.806C850.064 0 860 9.93639 860 22.1935V416.129H0V22.1936Z" fill="#E3F2FD"/>
<path fill-rule="evenodd" clip-rule="evenodd" d="M36.705 45.7744C41.655 45.7744 45.6677 41.7378 45.6677 36.7583C45.6677 31.7788 41.655 27.7422 36.705 27.7422C31.755 27.7422 27.7422 31.7788 27.7422 36.7583C27.7422 41.7378 31.755 45.7744 36.705 45.7744Z" fill="#90CAF9"/>
<path fill-rule="evenodd" clip-rule="evenodd" d="M67.1112 45.7744C72.0612 45.7744 76.074 41.7378 76.074 36.7583C76.074 31.7788 72.0612 27.7422 67.1112 27.7422C62.1612 27.7422 58.1484 31.7788 58.1484 36.7583C58.1484 41.7378 62.1612 45.7744 67.1112 45.7744Z" fill="#90CAF9"/>
<path fill-rule="evenodd" clip-rule="evenodd" d="M97.5253 45.7744C102.475 45.7744 106.488 41.7378 106.488 36.7583C106.488 31.7788 102.475 27.7422 97.5253 27.7422C92.5753 27.7422 88.5625 31.7788 88.5625 36.7583C88.5625 41.7378 92.5753 45.7744 97.5253 45.7744Z" fill="#90CAF9"/>
<rect x="27.7422" y="73.5156" width="804.516" height="45.7742" fill="#BBDEFB"/>
<rect x="27.7422" y="160.902" width="675.516" height="15.2581" fill="#BBDEFB"/>
<rect x="27.7422" y="183.098" width="466.065" height="15.2581" fill="#BBDEFB"/>
<rect x="27.7422" y="239.969" width="131.774" height="102.645" fill="#BBDEFB"/>
<rect x="27.7422" y="357.871" width="104.032" height="15.2581" fill="#BBDEFB"/>
<rect x="195.93" y="239.969" width="131.774" height="102.645" fill="#BBDEFB"/>
<rect x="195.93" y="357.871" width="104.032" height="15.2581" fill="#BBDEFB"/>
<rect x="364.109" y="239.969" width="131.774" height="102.645" fill="#BBDEFB"/>
<rect x="364.109" y="357.871" width="104.032" height="15.2581" fill="#BBDEFB"/>
<rect x="532.297" y="239.969" width="131.774" height="102.645" fill="#BBDEFB"/>
<rect x="532.297" y="357.871" width="104.032" height="15.2581" fill="#BBDEFB"/>
<rect x="700.484" y="239.969" width="131.774" height="102.645" fill="#BBDEFB"/>
<rect x="700.484" y="357.871" width="104.032" height="15.2581" fill="#BBDEFB"/>
</g>
<defs>
<clipPath id="clip0_197_10928">
<path d="M0 22.1935C0 9.93638 9.93639 0 22.1935 0H837.806C850.064 0 860 9.93639 860 22.1935V416H0V22.1935Z" fill="white"/>
</clipPath>
</defs>
</svg>
