<svg width="24" height="24" viewBox="0 0 24 24" fill="none" xmlns="http://www.w3.org/2000/svg">
  <path d="M11.293 4.29273C11.6591 3.92662 12.2381 3.90402 12.6309 4.22437L12.707 4.29273L19.707 11.2927C20.0976 11.6833 20.0976 12.3163 19.707 12.7068L12.707 19.7068C12.3165 20.0973 11.6835 20.0973 11.293 19.7068C10.9024 19.3163 10.9024 18.6833 11.293 18.2927L16.5859 12.9998H5C4.44772 12.9998 4 12.5521 4 11.9998C4 11.4475 4.44772 10.9998 5 10.9998H16.5859L11.293 5.7068L11.2246 5.63063C10.9043 5.23785 10.9269 4.65885 11.293 4.29273Z" fill="white" />
</svg>