<svg width="211" height="40" viewBox="0 0 211 40" fill="none" xmlns="http://www.w3.org/2000/svg">
<path d="M46.3809 39.7529H34.6904C34.6904 39.7529 32.0069 39.9428 29.707 36.1387C28.8672 34.7495 27.0059 31.5092 24.9805 27.9551C25.9012 30.8185 25.1 33.7139 23.957 35.1885C22.0406 37.6611 20.6985 39.7532 13.6074 39.9434C6.51803 40.1335 0.00331455 39.7531 0 39.7529L8.81641 24.7266C8.85511 24.6824 13.8246 19.035 20.3154 22.6348C21.5706 23.3309 22.5479 24.1333 23.2949 24.9922C20.2915 19.7038 17.4414 14.6455 17.4414 14.6455C17.4276 14.6159 16.1101 11.7764 18.0166 8.74902C19.9332 5.70567 23.1914 0 23.1914 0L46.3809 39.7529Z" fill="#1565C0"/>
<path d="M200.26 35.4174C198.226 35.4174 196.426 34.9907 194.859 34.1374C193.32 33.2565 192.111 32.0316 191.231 30.4625C190.379 28.866 189.953 26.9942 189.953 24.8471V24.3516C189.953 22.2045 190.379 20.3464 191.231 18.7774C192.083 17.1808 193.279 15.9559 194.818 15.1025C196.357 14.2217 198.144 13.7812 200.177 13.7812C202.184 13.7812 203.929 14.2354 205.413 15.1438C206.897 16.0247 208.052 17.2634 208.876 18.86C209.701 20.429 210.113 22.2595 210.113 24.3516V26.1271H195.23C195.285 27.5309 195.807 28.6733 196.797 29.5542C197.786 30.435 198.996 30.8754 200.425 30.8754C201.881 30.8754 202.953 30.5589 203.64 29.9258C204.328 29.2926 204.85 28.5907 205.207 27.82L209.453 30.0496C209.069 30.7653 208.505 31.5499 207.763 32.4032C207.049 33.229 206.087 33.9447 204.877 34.5503C203.668 35.1283 202.129 35.4174 200.26 35.4174ZM195.271 22.2458H204.836C204.726 21.0621 204.245 20.1124 203.393 19.3967C202.569 18.681 201.483 18.3232 200.136 18.3232C198.734 18.3232 197.621 18.681 196.797 19.3967C195.972 20.1124 195.464 21.0621 195.271 22.2458Z" fill="#1565C0"/>
<path d="M177.819 35.4174C175.153 35.4174 172.968 34.8393 171.264 33.6832C169.56 32.5271 168.529 30.8754 168.172 28.7283L172.954 27.4896C173.147 28.4531 173.463 29.2101 173.902 29.7606C174.37 30.3111 174.933 30.7103 175.593 30.958C176.28 31.1782 177.022 31.2883 177.819 31.2883C179.028 31.2883 179.922 31.0819 180.499 30.669C181.076 30.2286 181.365 29.6918 181.365 29.0587C181.365 28.4256 181.09 27.9438 180.54 27.6135C179.99 27.2557 179.111 26.9666 177.901 26.7464L176.747 26.54C175.318 26.2647 174.012 25.8931 172.831 25.4251C171.649 24.9296 170.7 24.2552 169.986 23.4019C169.271 22.5486 168.914 21.4475 168.914 20.0987C168.914 18.0617 169.656 16.5064 171.14 15.4329C172.624 14.3318 174.576 13.7812 176.994 13.7812C179.276 13.7812 181.172 14.2905 182.684 15.309C184.195 16.3275 185.185 17.6625 185.652 19.3142L180.829 20.8006C180.609 19.7546 180.155 19.0114 179.468 18.5709C178.808 18.1305 177.984 17.9103 176.994 17.9103C176.005 17.9103 175.249 18.0892 174.727 18.4471C174.205 18.7774 173.944 19.2453 173.944 19.8509C173.944 20.5116 174.218 21.0071 174.768 21.3374C175.318 21.6402 176.06 21.8742 176.994 22.0393L178.149 22.2458C179.688 22.521 181.076 22.8926 182.313 23.3606C183.577 23.801 184.566 24.4479 185.281 25.3013C186.023 26.1271 186.394 27.2557 186.394 28.6871C186.394 30.8342 185.611 32.4995 184.044 33.6832C182.505 34.8393 180.43 35.4174 177.819 35.4174Z" fill="#1565C0"/>
<path d="M158.375 34.8368V14.3568H163.57V34.8368H158.375ZM160.972 11.9619C160.038 11.9619 159.241 11.6591 158.581 11.0535C157.949 10.4479 157.633 9.64966 157.633 8.6587C157.633 7.66773 157.949 6.86945 158.581 6.26386C159.241 5.65826 160.038 5.35547 160.972 5.35547C161.934 5.35547 162.731 5.65826 163.363 6.26386C163.996 6.86945 164.312 7.66773 164.312 8.6587C164.312 9.64966 163.996 10.4479 163.363 11.0535C162.731 11.6591 161.934 11.9619 160.972 11.9619Z" fill="#1565C0"/>
<path d="M132.156 34.8368V5.93359H144.689C146.503 5.93359 148.084 6.25015 149.43 6.88327C150.777 7.51639 151.822 8.41101 152.564 9.56714C153.306 10.7233 153.677 12.0859 153.677 13.6549V14.1504C153.677 15.8846 153.264 17.2884 152.44 18.362C151.615 19.4355 150.598 20.22 149.389 20.7155V21.4588C150.489 21.5138 151.341 21.8992 151.945 22.6149C152.55 23.3031 152.852 24.2252 152.852 25.3813V34.8368H147.41V26.1659C147.41 25.5052 147.232 24.9684 146.874 24.5555C146.544 24.1426 145.981 23.9362 145.184 23.9362H137.598V34.8368H132.156ZM137.598 18.9813H144.112C145.404 18.9813 146.407 18.6372 147.122 17.9491C147.864 17.2334 148.235 16.2975 148.235 15.1413V14.7284C148.235 13.5723 147.877 12.6502 147.163 11.962C146.448 11.2463 145.431 10.8884 144.112 10.8884H137.598V18.9813Z" fill="#1565C0"/>
<path d="M119.194 35.4174C116.528 35.4174 114.343 34.8393 112.639 33.6832C110.935 32.5271 109.904 30.8754 109.547 28.7283L114.329 27.4896C114.522 28.4531 114.838 29.2101 115.277 29.7606C115.745 30.3111 116.308 30.7103 116.968 30.958C117.655 31.1782 118.397 31.2883 119.194 31.2883C120.403 31.2883 121.297 31.0819 121.874 30.669C122.451 30.2286 122.74 29.6918 122.74 29.0587C122.74 28.4256 122.465 27.9438 121.915 27.6135C121.365 27.2557 120.486 26.9666 119.276 26.7464L118.122 26.54C116.693 26.2647 115.387 25.8931 114.206 25.4251C113.024 24.9296 112.075 24.2552 111.361 23.4019C110.646 22.5486 110.289 21.4475 110.289 20.0987C110.289 18.0617 111.031 16.5064 112.515 15.4329C113.999 14.3318 115.951 13.7812 118.369 13.7812C120.651 13.7812 122.547 14.2905 124.059 15.309C125.57 16.3275 126.56 17.6625 127.027 19.3142L122.204 20.8006C121.984 19.7546 121.53 19.0114 120.843 18.5709C120.183 18.1305 119.359 17.9103 118.369 17.9103C117.38 17.9103 116.624 18.0892 116.102 18.4471C115.58 18.7774 115.319 19.2453 115.319 19.8509C115.319 20.5116 115.593 21.0071 116.143 21.3374C116.693 21.6402 117.435 21.8742 118.369 22.0393L119.524 22.2458C121.063 22.521 122.451 22.8926 123.688 23.3606C124.952 23.801 125.941 24.4479 126.656 25.3013C127.398 26.1271 127.769 27.2557 127.769 28.6871C127.769 30.8342 126.986 32.4995 125.419 33.6832C123.88 34.8393 121.805 35.4174 119.194 35.4174Z" fill="#1565C0"/>
<path d="M92.6567 35.4149C91.0351 35.4149 89.5097 35.0157 88.0805 34.2175C86.6788 33.3917 85.5519 32.1942 84.6999 30.6252C83.8479 29.0562 83.4219 27.1568 83.4219 24.9271V24.2665C83.4219 22.0368 83.8479 20.1375 84.6999 18.5684C85.5519 16.9994 86.6788 15.8157 88.0805 15.0175C89.4822 14.1917 91.0076 13.7788 92.6567 13.7788C93.8935 13.7788 94.9242 13.9302 95.7487 14.233C96.6008 14.5082 97.2879 14.8661 97.8101 15.3065C98.3323 15.7469 98.7308 16.2149 99.0057 16.7104H99.7478V5.93359H104.942V34.8368H99.8302V32.3594H99.0881C98.6209 33.1302 97.8926 33.8321 96.9031 34.4652C95.9411 35.0983 94.5257 35.4149 92.6567 35.4149ZM94.2233 30.873C95.8175 30.873 97.1505 30.3637 98.2224 29.3452C99.2943 28.2992 99.8302 26.7852 99.8302 24.8033V24.3904C99.8302 22.4084 99.2943 20.9082 98.2224 19.8897C97.1779 18.8437 95.8449 18.3207 94.2233 18.3207C92.6292 18.3207 91.2962 18.8437 90.2243 19.8897C89.1524 20.9082 88.6165 22.4084 88.6165 24.3904V24.8033C88.6165 26.7852 89.1524 28.2992 90.2243 29.3452C91.2962 30.3637 92.6292 30.873 94.2233 30.873Z" fill="#1565C0"/>
<path d="M56.1406 34.8368L63.7264 5.93359H73.2086L80.7944 34.8368H75.1875L73.6209 28.4781H63.3141L61.7475 34.8368H56.1406ZM64.5922 23.4407H72.3428L68.8385 9.36069H68.0965L64.5922 23.4407Z" fill="#1565C0"/>
</svg>
